<svg xmlns="http://www.w3.org/2000/svg" viewBox="0 0 1373.36 394.62">
  <defs>
    <style>
      .cls-1 {
        fill: #6c9736;
      }

      .cls-2 {
        fill: #245800;
      }

      .cls-3 {
        fill: #bdd150;
      }

      .cls-4 {
        fill: #e1ff6e;
      }

      .cls-5 {
        fill: #b55028;
      }
    </style>
  </defs>
  <g id="Layer_2" data-name="Layer 2">
    <g id="Layer_2-2" data-name="Layer 2">
      <g>
        <g>
          <g>
            <path class="cls-1" d="M675.27,37.73c110.07-26.09,131.59,76.91,131.13,95.58C741.68,94.58,700.3,105.48,675.27,37.73Z"/>
            <path class="cls-2" d="M661.72,35.17c-.15-.4-.53-2.78-.05-2.89a283.08,283.08,0,0,1,54.75,19.31c4.8-.71,9.36-2.8,13.8-4.86,2.26-1.06,4.61-2.17,6.18-4.11-1.37,3.57-5,5.68-8.35,7.51a37.84,37.84,0,0,1-7.61,3.42c6.47,3.22,12.55,6.59,18.24,10.06a67.47,67.47,0,0,0,18.07-4l4.9-2.28a38,38,0,0,1-19.58,8.39q8,5.06,14.95,10.3c7.09-.27,14.05-2.19,20.9-4.1a50.08,50.08,0,0,1-18.09,6.24A200.65,200.65,0,0,1,780.06,96.1a79,79,0,0,0,15.35,1.18c-3.89,1.88-9.26,1.76-12.93,1.33,12.74,13.51,20.52,26,23.92,34.7a167.86,167.86,0,0,0-25.71-33.16A28.46,28.46,0,0,1,776.21,113c1.23-5,2.46-10.23,2-15.37a216.22,216.22,0,0,0-19.09-16.58c-.54,7-1.38,14.09-4.92,20.09a46.31,46.31,0,0,0,1.29-22.84q-7.5-5.55-15.64-10.65c0,8.29-2.61,17.33-6.75,25.76,2.08-9,4.84-20.3,3.38-27.84q-9.11-5.49-18.9-10.34c.46,6.81-1.14,17-4.88,23.67,2.05-8.13,3.23-18.41,1.5-25.31A262.15,262.15,0,0,0,661.72,35.17Z"/>
            <path class="cls-1" d="M666.64,70.87c.94-4.36-7.12-61.37-4.31-67.36-4.19-6.47-10.67-2.28-13.51-.86-.66,12.53,4.94,57.35,6,66.7C658,73.57,664.56,73.47,666.64,70.87Z"/>
            <path class="cls-2" d="M660.38,65c-.61-7.87-1.39-15.74-2-23.62s-1-15.66-.88-23.5c.06-4,.25-8.07.66-12.08q.29-2.7.61-5.39a7.46,7.46,0,0,1,3.54,3.08c-2.81,6,5.25,63,4.31,67.36-1.08,1.35-3.38,2-5.79,1.77Q660.67,68.83,660.38,65Z"/>
          </g>
          <path class="cls-2" d="M667,68.74c-1.23,4.38-9.83,4.64-11,.91-2.13-6.76-16.32-3.32-28.09,11.28-20,24.8-25.23,64.78-45.35,104.09-20.21,39.49-26.9,80.47-16,121,16.64,61.77,58.66,97.71,123.66,86.63,88.5-15.07,96.28-105,93.73-137.52-3.94-50.38-17.34-67.12-34.77-93.68-19.93-30.39-36-68.7-50.16-85.52C690.41,65.59,669.2,61.09,667,68.74Z"/>
          <path class="cls-3" d="M666.48,69.81c-2.74,2.5-5.9,2.86-9.82,1-10.57-1.16-21.45,5.29-30.13,20.75-14.86,26.45-20.66,58.22-39.81,95.65-19.25,37.6-25.62,76.62-15.22,115.18,15.84,58.82,55.86,93,117.74,82.49,84.27-14.36,91.67-100,89.25-130.94-3.76-48-16.51-63.91-33.11-89.2-19-28.94-34.74-67.56-47.1-81.65C691.06,74.83,675.6,67.1,666.48,69.81Z"/>
          <path class="cls-4" d="M662.64,86.41C651.34,87.69,639,93.25,631.28,107,618.1,130.42,613,158.6,596,191.79c-17.07,33.35-23.15,71.09-14.1,106.41,13.41,52.33,56.19,81.56,106.5,74.78,71-9.57,81.76-89.11,79.62-116.57-3.34-42.55-16.59-62.11-31.3-84.54-16.84-25.67-30.81-59.93-41.78-72.42C688.52,92.16,676,85.57,662.64,86.41Z"/>
          <path class="cls-5" d="M727.34,264.6c-.09-.92-.21-1.84-.34-2.77,0-.4-.13-.81-.19-1.22s-.16-1-.25-1.55-.2-1-.3-1.54-.16-.82-.25-1.23-.25-1.11-.39-1.66c-.06-.28-.12-.56-.19-.83v0c-6.88-27.72-28.85-55.88-56.59-54a33.44,33.44,0,0,0-4.61.65h0A37.36,37.36,0,0,0,649.89,207h0c-.72.51-1.42,1.06-2.12,1.62l0,0c-.68.56-1.36,1.14-2,1.74l0,0c-.66.61-1.32,1.24-2,1.88h0a67,67,0,0,0-10.14,13.55l0,0c-.46.81-.92,1.63-1.36,2.47l-.06.11c-.43.81-.85,1.63-1.25,2.46l-.08.17c-.4.82-.79,1.65-1.16,2.48l-.08.18q-.57,1.26-1.08,2.52a1.34,1.34,0,0,0-.07.18c-.35.85-.69,1.7-1,2.56a1.21,1.21,0,0,1,0,.14c-.32.87-.64,1.75-.94,2.63l0,.06c-.61,1.8-1.16,3.62-1.66,5.43v0c-.24.87-.46,1.74-.68,2.61,0,.07,0,.13,0,.2q-.3,1.25-.57,2.49l-.06.29c-.17.81-.32,1.61-.47,2.41l-.06.34c-.14.79-.26,1.57-.38,2.35l-.05.36c-.11.78-.21,1.54-.3,2.3,0,.13,0,.25,0,.37-.08.76-.15,1.51-.21,2.26l0,.33c-.06.76-.1,1.51-.13,2.25a2.44,2.44,0,0,0,0,.27c0,.75-.05,1.5-.06,2.24a1.08,1.08,0,0,1,0,.18c0,.76,0,1.51,0,2.24v0c.66,17.83,9.6,56.25,46.47,58.74.62,0,1.26.08,1.9.1s1.29,0,2,0l2,0c1.35-.05,2.73-.14,4.15-.27A52.54,52.54,0,0,0,697.22,324a49.46,49.46,0,0,0,12-8.72,56,56,0,0,0,3.9-4.27C724.72,296.9,728.7,277.84,727.34,264.6Z"/>
        </g>
        <g>
          <path d="M106.45,348.57H78.87L21.79,284.16v64.41H0v-135H21.79v61.71l54.58-61.71h27.38L45.51,279.33Z"/>
          <path d="M225.77,234.4H159.43v34.91H221v20.82H159.43v37.61h66.34v20.83H137.63v-135h88.14Z"/>
          <path d="M357.63,213.57V234.4H316.36V348.57H294.57V234.4H253.5V213.57Z"/>
          <path d="M398.09,231.32q20.15-20.07,49.85-20.06t49.76,20.06q20.06,20.06,20.25,49.75-.21,29.7-20.25,49.75t-49.76,20.06q-29.7,0-49.85-20.06t-20.15-49.75Q377.94,251.37,398.09,231.32Zm49.85.77q-20.64,0-34.33,14t-13.69,35q0,21,13.69,35t34.33,14q20.44,0,34.13-14t13.7-35q0-21-13.7-35T447.94,232.09Z"/>
        </g>
        <g>
          <path d="M905.13,213.57q22,0,34.71,12.15t12.73,32.21q0,20.06-12.82,32.49t-34.62,12.44H871.57v45.71H849.78v-135ZM904.36,282q12.72,0,19.38-6.56t6.65-17.36q0-10.8-6.55-17.26t-19.48-6.46H871.57V282Z"/>
          <path d="M1009,327.74h61.52v20.83H987.24v-135H1009Z"/>
          <path d="M1206.47,348.57l-13.69-36.26h-58.63l-13.69,36.26h-23.14l52.26-135h27.77l52.26,135Zm-64.41-56.89h42.81l-21.41-56.51Z"/>
          <path d="M1351.56,213.57h21.8v135h-25.84L1280,244.24l2.12,47.82v56.51h-21.79v-135H1286l67.49,104.14-1.93-47.63Z"/>
        </g>
      </g>
    </g>
  </g>
</svg>
