<svg width="1018" height="900" fill="none" xmlns="http://www.w3.org/2000/svg"><path d="M544.598 0H1018v900H173L52.315 726.491c-30.89-44.411-28.245-103.999 6.457-145.499L544.598 0z" fill="#23232F"/><path d="M599.693 561.686c-3.477-2.063-7.848-1.983-11.409.209a9.055 9.055 0 01-1.771.839l-.419-11.335a.75.75 0 00-1.041-.664l-3.097 1.305a.749.749 0 00-.458.66l-.169 4.086a22.376 22.376 0 00-2.269-.439 4.524 4.524 0 00-.293-.853c-.913-1.979-2.616-3.782-3.475-4.454-3.199-2.5-6.418-3.162-9.568-1.969-6.747 2.557-10.991 12.861-12.082 18.754a1.267 1.267 0 00.703 1.371c.167.079.35.12.535.12.271-.001.536-.088.754-.249 1.367-1.023 3.5-2.152 6.582-2.621-3.279 3.873-5.001 8.784-5.001 14.326 0 4.744 1.236 9.659 3.575 14.215 2.323 4.526 5.577 8.395 9.409 11.187a6.02 6.02 0 006.975.037 11.17 11.17 0 016.477-1.988c2.312.025 4.56.767 6.433 2.124a6.019 6.019 0 003.542 1.153 5.945 5.945 0 003.436-1.089c3.92-2.768 7.255-6.654 9.644-11.237 2.403-4.608 3.672-9.588 3.672-14.401 0-8.22-3.795-14.998-10.685-19.087zm-16.716-8.448l1.658-.699.391 10.573c-.812.136-1.64.16-2.459.072l.41-9.946zm-4.091 5.771c.138-.363.228-.742.269-1.127.711.108 1.416.256 2.111.44l-.189 4.575a9.032 9.032 0 01-2.233-.967c-.373-.226-.76-.429-1.158-.607.486-.724.888-1.501 1.2-2.315v.001zm-23.652 8.502c1.262-5.996 5.366-14.894 11.021-17.038.8-.308 1.65-.467 2.508-.469 1.838 0 3.715.741 5.605 2.218.632.494 2.206 2.097 3.037 3.9l.02.046a26.418 26.418 0 00-2.684-.073c-4.034.093-10.075 1.187-15.957 5.864a.754.754 0 00.101 1.246.753.753 0 00.833-.072c5.533-4.4 11.208-5.44 14.995-5.537.986-.025 1.972.008 2.954.1a3.018 3.018 0 01-.182.778c-.916 2.404-3.41 6.312-9.929 6.311-.301 0-.61-.008-.929-.025-5.529-.298-9.192 1.255-11.393 2.751zm53.644 13.261c0 4.573-1.211 9.313-3.502 13.708-2.279 4.372-5.453 8.074-9.179 10.705a4.489 4.489 0 01-5.232-.052 12.665 12.665 0 00-14.646-.154 4.522 4.522 0 01-5.237-.017c-3.643-2.655-6.741-6.341-8.958-10.66-2.23-4.345-3.409-9.023-3.409-13.53 0-5.759 1.98-10.777 5.729-14.533a22.866 22.866 0 012.101.019c5.211.282 8.344-1.644 10.191-3.711.461.186.906.408 1.331.666a10.585 10.585 0 0011.003-.04c3.085-1.899 6.862-1.975 9.857-.197 3.109 1.845 5.546 4.26 7.243 7.18 1.797 3.091 2.708 6.662 2.708 10.616z" fill="#fff" fill-opacity=".1"/><path d="M561.719 580.774a19.514 19.514 0 01.808-5.707.747.747 0 00-.497-.936.75.75 0 00-.937.497 20.997 20.997 0 00-.874 6.146c0 3.243.681 6.697 1.97 9.989a.749.749 0 101.397-.547c-1.221-3.119-1.867-6.384-1.867-9.442zM563.647 570.778a.748.748 0 00-1.023.28c-.143.25-.281.508-.411.765a.756.756 0 00.096.833.75.75 0 001.243-.157c.119-.235.245-.47.375-.698a.756.756 0 00.072-.57.755.755 0 00-.352-.453zM226.75 548.501h-10.485a.757.757 0 00-.589.286.747.747 0 00-.14.64 2.808 2.808 0 01-1.5 3.183 2.798 2.798 0 01-2.451 0 2.8 2.8 0 01-1.515-1.926 2.808 2.808 0 01.015-1.257.747.747 0 00-.729-.926h-31.812a.79.79 0 00-.794.75v7.5h-7.5a.79.79 0 00-.75.794v49.206c0 .199.079.39.22.53.14.141.331.22.53.22h6.41a.746.746 0 00.599-.299.753.753 0 00.121-.658 4.557 4.557 0 01.737-3.992 4.547 4.547 0 018.003 3.992.755.755 0 00.122.658.74.74 0 00.599.299h32.615a.79.79 0 00.794-.75v-6.625h7.5a.736.736 0 00.283-.044.733.733 0 00.407-.386.716.716 0 00.06-.281v-18.519a.75.75 0 00-.957-.721 4.544 4.544 0 01-5.326-2.34 4.537 4.537 0 010-4.059 4.538 4.538 0 013.243-2.442 4.544 4.544 0 012.083.102.741.741 0 00.658-.122.75.75 0 00.299-.599v-21.464a.747.747 0 00-.22-.53.747.747 0 00-.53-.22zm-9 57.5h-30.995a6.04 6.04 0 00-6.005-6.763 6.04 6.04 0 00-4.522 2.032 6.04 6.04 0 00-1.482 4.731H170v-47.75h17.251l-.002.178a4.802 4.802 0 00.358 1.841 4.803 4.803 0 002.597 2.607 4.798 4.798 0 005.236-1.048 4.791 4.791 0 001.393-3.405l-.002-.173h20.919v33.045c-.125 0-.079-.001-.108-.001a4.303 4.303 0 00-3.039 7.35 4.3 4.3 0 003.044 1.259l.103-.001v6.098zm7.536-24.149c.239 0 .477-.014.714-.042v16.816h-6.902a.787.787 0 00-.466-.305.77.77 0 00-.341.004 2.804 2.804 0 11-.01-5.451.792.792 0 00.882-.4.771.771 0 00.087-.329v-15.993a6.051 6.051 0 006.036 5.7zm.714-12.051a6.05 6.05 0 00-4.598 1.37 6.048 6.048 0 00-2.152 4.288v-17.914a.822.822 0 00-.242-.552.822.822 0 00-.552-.242H195.98a.792.792 0 00-.587.305.79.79 0 00-.144.645 3.328 3.328 0 01-.2 2.092 3.298 3.298 0 01-2.006 1.798 3.3 3.3 0 01-2.678-.302 3.287 3.287 0 01-1.532-3.578.783.783 0 00-.144-.656.767.767 0 00-.587-.304h-9.852v-6.75h30.257l-.001.086a4.305 4.305 0 008.609 0l-.001-.086H226v19.8z" fill="#fff" fill-opacity=".1"/><path d="M179.7 568.154a4.294 4.294 0 00-3.971 2.653 4.3 4.3 0 007.545 4.033 4.301 4.301 0 00.724-2.388 4.302 4.302 0 00-4.298-4.298zm0 7.096a2.799 2.799 0 110-5.599 2.799 2.799 0 010 5.599zM198.961 590.501a4.705 4.705 0 00-4.343 2.902 4.706 4.706 0 001.019 5.124 4.702 4.702 0 008.026-3.325 4.705 4.705 0 00-4.702-4.701zm0 7.903a3.197 3.197 0 01-1.778-.54 3.198 3.198 0 01-.486-4.925 3.198 3.198 0 014.926.485 3.197 3.197 0 01-.399 4.041c-.6.6-1.414.938-2.263.939zM208.738 569.688a4.74 4.74 0 00-4.647 5.662 4.74 4.74 0 008.586 1.708c.52-.779.798-1.695.798-2.632a4.745 4.745 0 00-4.737-4.738zm0 7.976a3.241 3.241 0 01-2.992-1.998 3.239 3.239 0 014.23-4.23 3.233 3.233 0 011.999 2.991 3.241 3.241 0 01-3.237 3.238v-.001zM172.625 561.046a.747.747 0 00-.53.22.747.747 0 00-.22.53v.787a.75.75 0 001.5 0v-.787a.747.747 0 00-.22-.53.747.747 0 00-.53-.22zM172.625 564.206a.747.747 0 00-.53.22.747.747 0 00-.22.53v8.25a.742.742 0 00.22.53.742.742 0 00.817.163.742.742 0 00.406-.406.742.742 0 00.057-.287v-8.25a.747.747 0 00-.22-.53.747.747 0 00-.53-.22zM417.245 565.626h-.745v-2.971a2.273 2.273 0 00-2.249-2.279h-1.712c-.27.01-.536.063-.789.157v-1.909a2.227 2.227 0 00-1.364-2.076 2.225 2.225 0 00-.856-.172h-1.712c-1.243 0-2.193 1.005-2.193 2.248v6.877H386.75v-6.877a2.2 2.2 0 00-.158-.856 2.215 2.215 0 00-2.05-1.392h-1.713a2.23 2.23 0 00-.853.173 2.229 2.229 0 00-1.195 1.219 2.22 2.22 0 00-.156.856v1.909a2.632 2.632 0 00-.805-.157h-1.711a2.26 2.26 0 00-2.234 2.279v2.971h-.76a2.22 2.22 0 00-1.583.636 2.209 2.209 0 00-.657 1.575v2.057a2.214 2.214 0 001.382 2.066c.272.112.564.168.858.166h.76v2.95c0 1.243.99 2.3 2.234 2.3h1.711c.276-.017.548-.077.805-.178v1.908c0 1.244.962 2.27 2.205 2.27h1.712a2.23 2.23 0 002.208-2.27v-6.855h18.875v6.855c0 1.244.95 2.27 2.193 2.27h1.712a2.245 2.245 0 002.22-2.27v-1.871c.216.074.44.121.667.141h1.957c1.175 0 2.126-1.002 2.126-2.177v-3.073h.745a2.242 2.242 0 002.081-1.373c.114-.272.173-.564.174-.859v-2.057a2.22 2.22 0 00-2.255-2.211zm-41.37 5h-.76a.722.722 0 01-.74-.732v-2.057a.71.71 0 01.458-.667.713.713 0 01.282-.044h.76v3.5zm4.75 4.37a.756.756 0 01-.755.755h-1.74a.753.753 0 01-.755-.755v-12.365a.753.753 0 01.755-.755h1.74a.752.752 0 01.755.755v12.365zm4.625 4.11c0 .417-.292.77-.708.77h-1.713c-.416 0-.704-.368-.704-.784v-20.468a.693.693 0 01.191-.525.708.708 0 01.514-.223h1.712a.706.706 0 01.514.223.714.714 0 01.194.525v20.482zm20.375-8.355H386.75v-3.75h18.875v3.75zm4.625 8.355a.744.744 0 01-.436.705.75.75 0 01-.284.065h-1.712c-.416 0-.693-.353-.693-.77v-20.482c0-.416.277-.748.693-.748h1.712a.719.719 0 01.673.464.71.71 0 01.047.284v20.482zm4.75-3.907a.668.668 0 01-.626.677h-1.957a.703.703 0 01-.667-.677v-12.544a.807.807 0 01.789-.779h1.713a.77.77 0 01.748.779v12.544zm3-5.305a.73.73 0 01-.755.732h-.745v-3.5h.745a.72.72 0 01.755.711v2.057z" fill="#fff" fill-opacity=".1"/><path d="M404.886 583.876h-.761v-2.95c0-1.243-.99-2.3-2.234-2.3h-1.711a2.647 2.647 0 00-.805.178v-1.909c0-1.243-.961-2.269-2.205-2.269h-1.712a2.23 2.23 0 00-2.208 2.269v6.856h-18.875v-6.856c0-1.243-.95-2.269-2.193-2.269h-1.712a2.245 2.245 0 00-2.22 2.269v1.909a2.555 2.555 0 00-.789-.178h-1.713c-1.243 0-2.248 1.057-2.248 2.3v2.95h-.745a2.242 2.242 0 00-2.081 1.373 2.242 2.242 0 00-.174.859v2.057a2.223 2.223 0 002.255 2.211h.745v2.971a2.273 2.273 0 002.249 2.279h1.712c.27-.01.536-.063.789-.157v1.908a2.228 2.228 0 00.641 1.588 2.228 2.228 0 001.579.661h1.712c1.243 0 2.193-1.005 2.193-2.249v-6.876h18.875v6.876a2.202 2.202 0 00.634 1.587 2.215 2.215 0 001.574.662h1.713a2.23 2.23 0 00.853-.173 2.229 2.229 0 001.195-1.219c.108-.272.161-.564.156-.857v-1.871c.222.068.45.108.682.12h1.957a2.138 2.138 0 002.111-2.156v-3.094h.761a2.218 2.218 0 001.582-.636 2.209 2.209 0 00.657-1.575v-2.057a2.214 2.214 0 00-1.382-2.066 2.213 2.213 0 00-.857-.166zm-41.386 5h-.745a.72.72 0 01-.755-.711v-2.057a.73.73 0 01.755-.732h.745v3.5zm4.75 4.37a.756.756 0 01-.755.755h-1.74a.753.753 0 01-.755-.755v-12.365a.752.752 0 01.755-.755h1.74a.752.752 0 01.755.755v12.365zm4.625 4.131c0 .417-.277.749-.693.749h-1.712a.719.719 0 01-.673-.464.712.712 0 01-.047-.285v-20.482a.74.74 0 01.72-.769h1.712c.416 0 .693.353.693.769v20.482zm20.375-8.376h-18.875v-3.75h18.875v3.75zm4.625 8.376a.716.716 0 01-.192.526.704.704 0 01-.513.223h-1.712a.724.724 0 01-.514-.223.714.714 0 01-.194-.526v-20.482c0-.416.292-.769.708-.769h1.713c.416 0 .704.353.704.769v20.482zm4.75-3.907a.64.64 0 01-.611.656h-1.957a.695.695 0 01-.682-.656v-12.544a.844.844 0 01.805-.8h1.711c.417 0 .734.384.734.8v12.544zm3-5.305a.71.71 0 01-.458.667.73.73 0 01-.281.044h-.761v-3.5h.761a.72.72 0 01.739.732v2.057z" fill="#fff" fill-opacity=".1"/><path d="M375.795 587.501h.787a.75.75 0 000-1.5h-.787a.747.747 0 00-.53.22.747.747 0 000 1.06c.14.141.331.22.53.22zM378.957 587.501h8.25c.199 0 .39-.079.53-.22a.747.747 0 000-1.06.747.747 0 00-.53-.22h-8.25a.747.747 0 00-.53.22.747.747 0 000 1.06c.14.141.331.22.53.22zM782.77 576.093a7.144 7.144 0 00-5.052 12.198 7.15 7.15 0 007.787 1.549 7.146 7.146 0 004.411-6.602 7.152 7.152 0 00-7.146-7.145zm0 12.791a5.647 5.647 0 110-11.293 5.647 5.647 0 010 11.293zM751.454 568.512a.752.752 0 00-1.012.319 29.09 29.09 0 00-.32.637.747.747 0 00.109.831.742.742 0 00.519.253.759.759 0 00.721-.427c.098-.204.2-.406.302-.601a.749.749 0 00-.319-1.012zM750.031 571.494a.748.748 0 00-.967.437 32.57 32.57 0 00-1.968 8.705.756.756 0 00.405.729.774.774 0 00.344.082.748.748 0 00.747-.689 30.992 30.992 0 011.876-8.298.751.751 0 00-.437-.966z" fill="#fff" fill-opacity=".1"/><path d="M797.859 575.025c-.879-3.913-2.432-7.543-4.393-10.251-2.284-3.155-4.929-4.822-7.65-4.822-2.518 0-4.967 1.425-7.127 4.135a16.38 16.38 0 00-.709-.833c-1.979-2.16-4.198-3.302-6.417-3.302-2.53 0-4.99 1.443-7.13 4.13-2.158-2.707-4.606-4.131-7.123-4.131-3.388 0-6.651 2.588-9.187 7.288-2.269 4.203-3.623 9.592-3.623 14.416 0 4.727 1.261 8.404 3.748 10.931 2.23 2.265 5.364 3.462 9.062 3.462 2.7 0 5.152-.658 7.128-1.905 1.978 1.251 4.397 1.905 7.125 1.905a14.423 14.423 0 004.631-.723c1.66.482 3.528.723 5.603.724 4.823 0 10.212-1.354 14.415-3.622 4.7-2.537 7.288-5.8 7.288-9.188 0-2.97-1.988-5.843-5.641-8.214zm-12.042-13.574c1.547 0 3.92.729 6.434 4.202 1.613 2.227 2.935 5.133 3.8 8.312-4.058-2.152-9.184-3.459-13.837-3.533a25.937 25.937 0 00-2.602-5.087c2.424-3.203 4.698-3.894 6.205-3.894zm-28.507 33.098c-3.287 0-6.051-1.043-7.993-3.016-2.201-2.235-3.317-5.559-3.317-9.878 0-4.587 1.287-9.709 3.442-13.704 2.23-4.131 5.097-6.5 7.868-6.5 1.507 0 3.781.691 6.205 3.893a23.92 23.92 0 00-1.14 1.895c-2.268 4.203-3.622 9.592-3.622 14.416 0 4.727 1.261 8.404 3.748 10.931.202.205.413.398.63.585-1.645.903-3.634 1.378-5.821 1.378zm14.253 0c-3.287 0-6.051-1.043-7.993-3.016-2.201-2.235-3.317-5.559-3.317-9.878 0-4.587 1.287-9.709 3.442-13.704 2.23-4.131 5.098-6.5 7.868-6.5 3.359 0 6.77 3.423 9.048 9.005-4.16.197-7.435 1.445-9.745 3.72-2.266 2.231-3.464 5.364-3.464 9.063 0 3.698 1.198 6.831 3.464 9.062.856.839 1.838 1.54 2.909 2.078-.732.114-1.471.171-2.212.17zm23.937-3.443c-3.994 2.156-9.117 3.443-13.703 3.443-4.32 0-7.643-1.116-9.879-3.317-1.973-1.942-3.015-4.707-3.015-7.994s1.042-6.051 3.015-7.993c2.236-2.201 5.559-3.317 9.879-3.317 4.586 0 9.709 1.287 13.703 3.442 4.131 2.23 6.5 5.097 6.5 7.868s-2.369 5.639-6.5 7.868zM941.615 561.001h-.115a.747.747 0 00-.53.22.747.747 0 000 1.06c.14.141.331.22.53.22h.115a.75.75 0 000-1.5zM944.485 561.751a.747.747 0 00-.22-.53.747.747 0 00-.53-.22h-.075a.747.747 0 00-.53.22.747.747 0 000 1.06c.14.141.331.22.53.22h.075c.199 0 .39-.079.53-.22a.747.747 0 00.22-.53zM946.662 562.501h.035c.199 0 .39-.079.53-.22a.747.747 0 000-1.06.747.747 0 00-.53-.22h-.035a.747.747 0 00-.53.22.747.747 0 000 1.06c.14.141.331.22.53.22zM990.499 561.001h-.114a.75.75 0 000 1.5h.114a.75.75 0 000-1.5zM988.341 561.001h-.075a.75.75 0 000 1.5h.075a.749.749 0 00.53-1.28.749.749 0 00-.53-.22zM985.303 562.501h.035a.749.749 0 00.53-1.28.749.749 0 00-.53-.22h-.035a.75.75 0 000 1.5zM966.002 563.29a2.244 2.244 0 001.602-.702 2.067 2.067 0 00.595-1.529 2.191 2.191 0 00-3.8-1.463c-.198.201-.353.44-.456.703a2.08 2.08 0 00-.139.826 2.226 2.226 0 002.198 2.165zm-.519-2.657a.754.754 0 01.519-.239c.432 0 .682.377.698.732a.588.588 0 01-.18.425.753.753 0 01-.518.238c-.433 0-.683-.376-.699-.731a.594.594 0 01.18-.425z" fill="#fff" fill-opacity=".1"/><path d="M980.716 562.501h1.714a.75.75 0 000-1.5h-2.07c-.496-2.771-.19-5.862.909-9.406.205-.685.465-1.353.776-1.997a.758.758 0 00.085-.371.751.751 0 00-.75-.726h-30.763a.75.75 0 00-.665 1.096c.311.644.571 1.313.777 1.998 1.098 3.545 1.404 6.635.908 9.406h-2.07a.749.749 0 00-.53 1.28c.141.141.331.22.53.22h1.714a14.053 14.053 0 01-2.088 4.202c-3.284 4.574-4.952 7.9-4.957 13.385-.004 5.228 1.45 12.253 4.091 25.004l.341 1.666a.768.768 0 00.734.618h33.194a.766.766 0 00.734-.618l.341-1.656c2.64-12.751 4.095-19.781 4.09-25.009-.004-5.485-1.673-8.814-4.957-13.388a14.075 14.075 0 01-2.088-4.204zm-30.305 5.076a15.517 15.517 0 002.439-5.076h2.738l-1.312 1.341a.769.769 0 000 1.075.752.752 0 00.817.173.738.738 0 00.244-.162l2.592-2.59a.742.742 0 00.163-.816.742.742 0 00-.163-.243l-2.592-2.592a.752.752 0 00-1.28.516.712.712 0 00.219.515l1.312 1.283h-2.418c.472-2.929.133-6.168-1.008-9.85a17.715 17.715 0 00-.4-1.15h28.474c-.125.322-.262.709-.4 1.15-1.141 3.681-1.48 6.921-1.008 9.85h-2.419l1.313-1.283a.726.726 0 00.163-.806.755.755 0 00-.695-.456.753.753 0 00-.529.224l-2.593 2.596a.754.754 0 000 1.062l2.593 2.594a.75.75 0 001.061 0 .784.784 0 000-1.09l-1.313-1.341h2.739a15.514 15.514 0 002.438 5.076c.42.585.809 1.145 1.169 1.688l-2.883.577a70.384 70.384 0 01-27.746 0l-2.884-.577a59.09 59.09 0 011.169-1.688zm14.838 38.299h-15.236l-.217-1.068c-2.235-10.788-3.628-17.53-3.972-22.42 7.017.434 14.898 3.997 16.29 10.053a3.888 3.888 0 003.135 2.927v10.508zm16.953-1.068l-.217 1.068h-15.236v-10.544a3.833 3.833 0 002.931-2.894c.833-3.664 3.944-6.002 6.408-7.318 2.918-1.559 6.553-2.54 10.088-2.756-.341 4.891-1.736 11.637-3.974 22.444zm4.047-23.961c-3.796.208-7.721 1.269-10.868 2.95-3.928 2.098-6.405 4.971-7.164 8.308a2.388 2.388 0 01-4.641-.005c-.766-3.333-3.21-6.197-7.066-8.283-3.102-1.678-6.988-2.737-10.761-2.945-.07-2.706.244-4.837.988-6.869l3.8.76a78.71 78.71 0 0015.462 1.539 78.703 78.703 0 0015.462-1.539l3.8-.76c.741 2.025 1.055 4.149.988 6.844zm-1.579-8.256l-3.503.702a76.987 76.987 0 01-30.336 0l-3.503-.702c.305-.65.657-1.3 1.056-1.968l3.447.689a72.17 72.17 0 0014.168 1.411 72.16 72.16 0 0014.167-1.411l3.447-.689a22.81 22.81 0 011.057 1.968z" fill="#fff" fill-opacity=".1"/><path d="M950.315 593.826a.746.746 0 00-.88-.598.735.735 0 00-.48.318.747.747 0 00-.112.565 615.22 615.22 0 001.359 6.753.752.752 0 001.361.261.738.738 0 00.108-.563 643.75 643.75 0 01-1.356-6.736zM949.198 591.97a.764.764 0 00.482-.312.756.756 0 00.121-.561l-.108-.596a.75.75 0 10-1.476.265l.109.601a.745.745 0 00.579.598.741.741 0 00.293.005zM418.75 292.5h-10.485a.757.757 0 00-.589.286.747.747 0 00-.14.64 2.808 2.808 0 01-1.5 3.183 2.798 2.798 0 01-2.451 0 2.8 2.8 0 01-1.515-1.926 2.808 2.808 0 01.015-1.257.747.747 0 00-.729-.926h-31.812a.79.79 0 00-.794.75v7.5h-7.5a.79.79 0 00-.75.794v49.206c0 .199.079.39.22.53.14.141.331.22.53.22h6.41a.746.746 0 00.599-.299.753.753 0 00.121-.658 4.557 4.557 0 01.737-3.992 4.547 4.547 0 018.003 3.992.755.755 0 00.122.658.74.74 0 00.599.299h32.615a.79.79 0 00.794-.75v-6.625h7.5a.736.736 0 00.283-.044.733.733 0 00.407-.386.716.716 0 00.06-.281v-18.519a.75.75 0 00-.957-.721 4.544 4.544 0 01-5.326-2.34 4.537 4.537 0 010-4.059 4.538 4.538 0 013.243-2.442 4.544 4.544 0 012.083.102.741.741 0 00.658-.122.75.75 0 00.299-.599V293.25a.747.747 0 00-.22-.53.747.747 0 00-.53-.22zm-9 57.5h-30.995a6.042 6.042 0 00-1.483-4.731 6.041 6.041 0 00-4.522-2.032 6.04 6.04 0 00-4.522 2.032 6.04 6.04 0 00-1.482 4.731H362v-47.75h17.251l-.002.178a4.802 4.802 0 00.358 1.841 4.803 4.803 0 002.597 2.607 4.798 4.798 0 005.236-1.048 4.791 4.791 0 001.393-3.405l-.002-.173h20.919v33.045c-.125 0-.079-.001-.108-.001a4.303 4.303 0 00-3.039 7.35 4.3 4.3 0 003.044 1.259l.103-.001V350zm7.536-24.148c.239-.001.477-.015.714-.043v16.816h-6.902a.787.787 0 00-.466-.305.77.77 0 00-.341.004 2.804 2.804 0 11-.01-5.451.792.792 0 00.882-.4.771.771 0 00.087-.329v-15.993a6.051 6.051 0 006.036 5.701zM418 313.8a6.055 6.055 0 00-6.118 3.291 6.048 6.048 0 00-.632 2.367v-17.914a.826.826 0 00-.794-.794H387.98a.792.792 0 00-.587.305.79.79 0 00-.144.645 3.328 3.328 0 01-.2 2.092 3.298 3.298 0 01-2.006 1.798 3.3 3.3 0 01-2.678-.302 3.287 3.287 0 01-1.532-3.578.783.783 0 00-.144-.656.767.767 0 00-.587-.304h-9.852V294h30.257l-.001.086a4.305 4.305 0 008.609 0l-.001-.086H418v19.8z" fill="#fff" fill-opacity=".1"/><path d="M371.7 312.153a4.294 4.294 0 00-3.971 2.653 4.302 4.302 0 00.932 4.684 4.299 4.299 0 007.337-3.039 4.302 4.302 0 00-4.298-4.298zm0 7.096a2.799 2.799 0 110-5.599 2.799 2.799 0 010 5.599zM390.961 334.5a4.705 4.705 0 00-4.343 2.902 4.706 4.706 0 001.019 5.124 4.702 4.702 0 008.026-3.324 4.706 4.706 0 00-4.702-4.702zm0 7.903a3.197 3.197 0 01-1.778-.54 3.198 3.198 0 01-.486-4.925 3.199 3.199 0 013.489-.694 3.198 3.198 0 011.038 5.22c-.6.6-1.414.938-2.263.939zM400.738 313.688a4.739 4.739 0 00-4.377 2.924 4.732 4.732 0 001.027 5.163 4.74 4.74 0 008.087-3.35 4.745 4.745 0 00-4.737-4.737zm0 7.975a3.241 3.241 0 01-2.992-1.998 3.239 3.239 0 014.23-4.23 3.233 3.233 0 011.999 2.991 3.241 3.241 0 01-3.237 3.238v-.001zM364.625 305.045a.747.747 0 00-.53.22.747.747 0 00-.22.53v.787a.75.75 0 001.5 0v-.787a.747.747 0 00-.22-.53.747.747 0 00-.53-.22zM364.625 308.205a.747.747 0 00-.53.22.747.747 0 00-.22.53v8.25a.742.742 0 00.22.53.742.742 0 00.817.163.742.742 0 00.406-.406.742.742 0 00.057-.287v-8.25a.747.747 0 00-.22-.53.747.747 0 00-.53-.22zM609.245 309.625h-.745v-2.971a2.273 2.273 0 00-2.249-2.279h-1.712c-.27.01-.536.063-.789.157v-1.909a2.227 2.227 0 00-1.364-2.076 2.225 2.225 0 00-.856-.172h-1.712c-1.243 0-2.193 1.005-2.193 2.248v6.877H578.75v-6.877a2.2 2.2 0 00-.158-.856 2.215 2.215 0 00-2.05-1.392h-1.713a2.23 2.23 0 00-.853.173 2.229 2.229 0 00-1.195 1.219 2.22 2.22 0 00-.156.856v1.909a2.632 2.632 0 00-.805-.157h-1.711a2.26 2.26 0 00-2.234 2.279v2.971h-.76a2.22 2.22 0 00-1.583.636 2.209 2.209 0 00-.657 1.575v2.057a2.214 2.214 0 001.382 2.066c.272.112.564.168.858.166h.76v2.95c0 1.243.99 2.3 2.234 2.3h1.711c.276-.017.548-.077.805-.178v1.908c0 1.244.962 2.27 2.205 2.27h1.712a2.23 2.23 0 002.208-2.27v-6.855h18.875v6.855c0 1.244.95 2.27 2.193 2.27h1.712a2.245 2.245 0 002.22-2.27v-1.871c.216.074.44.121.667.141h1.957c1.175 0 2.126-1.002 2.126-2.177v-3.073h.745a2.242 2.242 0 002.081-1.373c.114-.272.173-.564.174-.859v-2.057a2.223 2.223 0 00-2.255-2.211zm-41.37 5h-.76a.722.722 0 01-.74-.732v-2.057a.71.71 0 01.458-.667.713.713 0 01.282-.044h.76v3.5zm4.75 4.37a.752.752 0 01-.755.755h-1.74a.753.753 0 01-.755-.755V306.63a.753.753 0 01.755-.755h1.74a.753.753 0 01.755.755v12.365zm4.625 4.11c0 .417-.292.77-.708.77h-1.713c-.416 0-.704-.368-.704-.784v-20.468a.693.693 0 01.191-.525.708.708 0 01.514-.223h1.712a.724.724 0 01.514.223.714.714 0 01.194.525v20.482zm20.375-8.355H578.75V311h18.875v3.75zm4.625 8.355a.744.744 0 01-.436.705.75.75 0 01-.284.065h-1.712c-.416 0-.693-.353-.693-.77v-20.482c0-.416.277-.748.693-.748h1.712a.719.719 0 01.673.464.71.71 0 01.047.284v20.482zm4.75-3.907a.668.668 0 01-.626.677h-1.957a.703.703 0 01-.667-.677v-12.544a.807.807 0 01.789-.779h1.713a.77.77 0 01.748.779v12.544zm3-5.305a.73.73 0 01-.755.732h-.745v-3.5h.745a.72.72 0 01.755.711v2.057z" fill="#fff" fill-opacity=".1"/><path d="M596.886 327.875h-.761v-2.95c0-1.243-.99-2.3-2.234-2.3h-1.711a2.647 2.647 0 00-.805.178v-1.908c0-1.244-.961-2.27-2.205-2.27h-1.712a2.23 2.23 0 00-2.208 2.27v6.855h-18.875v-6.855c0-1.244-.95-2.27-2.193-2.27h-1.712a2.245 2.245 0 00-2.22 2.27v1.908a2.555 2.555 0 00-.789-.178h-1.713c-1.243 0-2.248 1.057-2.248 2.3v2.95h-.745a2.242 2.242 0 00-2.081 1.373 2.242 2.242 0 00-.174.859v2.057a2.223 2.223 0 002.255 2.211h.745v2.971a2.273 2.273 0 002.249 2.279h1.712c.27-.01.536-.063.789-.157v1.908a2.228 2.228 0 00.641 1.588 2.228 2.228 0 001.579.661h1.712c1.243 0 2.193-1.005 2.193-2.249V334.5h18.875v6.876a2.202 2.202 0 00.634 1.587 2.215 2.215 0 001.574.662h1.713a2.23 2.23 0 00.853-.173 2.229 2.229 0 001.195-1.219c.108-.272.161-.564.156-.857v-1.871c.222.068.45.108.682.12h1.957a2.138 2.138 0 002.111-2.156v-3.094h.761a2.218 2.218 0 001.582-.636 2.209 2.209 0 00.657-1.575v-2.057a2.214 2.214 0 00-1.382-2.066 2.213 2.213 0 00-.857-.166zm-41.386 5h-.745a.72.72 0 01-.755-.711v-2.057a.73.73 0 01.755-.732h.745v3.5zm4.75 4.37a.756.756 0 01-.755.755h-1.74a.753.753 0 01-.755-.755V324.88a.756.756 0 01.755-.755h1.74a.753.753 0 01.755.755v12.365zm4.625 4.131c0 .417-.277.749-.693.749h-1.712a.719.719 0 01-.673-.464.712.712 0 01-.047-.285v-20.481a.744.744 0 01.436-.705.75.75 0 01.284-.065h1.712c.416 0 .693.353.693.77v20.481zM585.25 333h-18.875v-3.75h18.875V333zm4.625 8.376a.714.714 0 01-.425.69.697.697 0 01-.28.059h-1.712a.724.724 0 01-.514-.223.714.714 0 01-.194-.526v-20.481c0-.417.292-.77.708-.77h1.713c.416 0 .704.353.704.77v20.481zm4.75-3.907a.64.64 0 01-.611.656h-1.957a.695.695 0 01-.682-.656v-12.544a.844.844 0 01.805-.8h1.711c.417 0 .734.384.734.8v12.544zm3-5.305a.71.71 0 01-.458.667.71.71 0 01-.281.044h-.761v-3.5h.761a.72.72 0 01.739.732v2.057z" fill="#fff" fill-opacity=".1"/><path d="M567.795 331.5h.787a.75.75 0 000-1.5h-.787a.747.747 0 00-.53.22.747.747 0 000 1.06c.14.141.331.22.53.22zM570.957 331.5h8.25c.199 0 .39-.079.53-.22a.747.747 0 000-1.06.747.747 0 00-.53-.22h-8.25a.747.747 0 00-.53.22.747.747 0 000 1.06c.14.141.331.22.53.22zM974.77 320.092a7.144 7.144 0 00-5.052 12.198 7.144 7.144 0 1010.103-10.103 7.152 7.152 0 00-5.051-2.095zm0 12.791a5.647 5.647 0 110-11.293 5.647 5.647 0 010 11.293zM943.454 312.511a.752.752 0 00-1.012.319 29.09 29.09 0 00-.32.637.747.747 0 00.109.831.742.742 0 00.519.253.759.759 0 00.721-.427c.098-.204.2-.406.302-.601a.749.749 0 00-.319-1.012zM942.031 315.493a.748.748 0 00-.967.437 32.57 32.57 0 00-1.968 8.705.756.756 0 00.405.729.755.755 0 00.852-.117.747.747 0 00.239-.49 30.992 30.992 0 011.876-8.298.751.751 0 00-.437-.966z" fill="#fff" fill-opacity=".1"/><path d="M989.859 319.024c-.879-3.913-2.432-7.543-4.393-10.251-2.284-3.155-4.929-4.822-7.65-4.822-2.518 0-4.967 1.425-7.127 4.135a16.38 16.38 0 00-.709-.833c-1.979-2.16-4.198-3.302-6.417-3.302-2.53 0-4.99 1.443-7.13 4.13-2.158-2.707-4.606-4.131-7.123-4.131-3.388 0-6.651 2.588-9.187 7.288-2.269 4.203-3.623 9.592-3.623 14.416 0 4.727 1.261 8.404 3.748 10.931 2.23 2.265 5.364 3.462 9.062 3.462 2.7 0 5.152-.658 7.128-1.905 1.978 1.251 4.397 1.905 7.125 1.905a14.423 14.423 0 004.631-.723c1.66.482 3.528.723 5.603.724 4.823 0 10.212-1.354 14.415-3.622 4.7-2.537 7.288-5.8 7.288-9.188 0-2.97-1.988-5.843-5.641-8.214zm-12.042-13.574c1.547 0 3.92.729 6.434 4.202 1.613 2.227 2.935 5.133 3.8 8.312-4.058-2.152-9.184-3.459-13.837-3.533a25.937 25.937 0 00-2.602-5.087c2.424-3.203 4.698-3.894 6.205-3.894zm-28.507 33.098c-3.287 0-6.051-1.043-7.993-3.016-2.201-2.235-3.317-5.559-3.317-9.878 0-4.587 1.287-9.709 3.442-13.704 2.23-4.131 5.097-6.5 7.868-6.5 1.507 0 3.781.691 6.205 3.893a23.92 23.92 0 00-1.14 1.895c-2.268 4.203-3.622 9.592-3.622 14.416 0 4.727 1.261 8.404 3.748 10.931.202.205.413.398.63.585-1.645.903-3.634 1.378-5.821 1.378zm14.253 0c-3.287 0-6.051-1.043-7.993-3.016-2.201-2.235-3.317-5.559-3.317-9.878 0-4.587 1.287-9.709 3.442-13.704 2.23-4.131 5.098-6.5 7.868-6.5 3.359 0 6.77 3.423 9.048 9.005-4.16.197-7.435 1.445-9.745 3.72-2.266 2.231-3.464 5.364-3.464 9.063 0 3.698 1.198 6.831 3.464 9.062.856.839 1.838 1.54 2.909 2.078-.732.114-1.471.171-2.212.17zm23.937-3.443c-3.994 2.156-9.117 3.443-13.703 3.443-4.32 0-7.643-1.116-9.879-3.317-1.973-1.942-3.015-4.707-3.015-7.994s1.042-6.051 3.015-7.993c2.236-2.201 5.559-3.317 9.879-3.317 4.586 0 9.709 1.287 13.703 3.442 4.131 2.23 6.5 5.097 6.5 7.868s-2.369 5.639-6.5 7.868zM749.615 305h-.115a.747.747 0 00-.53.22.747.747 0 000 1.06c.14.141.331.22.53.22h.115a.75.75 0 000-1.5zM752.485 305.75a.747.747 0 00-.22-.53.747.747 0 00-.53-.22h-.075a.747.747 0 00-.53.22.747.747 0 000 1.06c.14.141.331.22.53.22h.075c.199 0 .39-.079.53-.22a.747.747 0 00.22-.53zM754.662 306.5h.035c.199 0 .39-.079.53-.22a.747.747 0 000-1.06.747.747 0 00-.53-.22h-.035a.747.747 0 00-.53.22.747.747 0 000 1.06c.14.141.331.22.53.22zM798.499 305h-.114a.75.75 0 000 1.5h.114a.75.75 0 000-1.5zM796.341 305h-.075a.75.75 0 000 1.5h.075a.749.749 0 00.53-1.28.749.749 0 00-.53-.22zM793.303 306.5h.035a.749.749 0 00.53-1.28.749.749 0 00-.53-.22h-.035a.75.75 0 000 1.5zM774.002 307.289a2.244 2.244 0 001.602-.702 2.067 2.067 0 00.595-1.529 2.191 2.191 0 00-3.8-1.463c-.198.201-.353.44-.456.703a2.08 2.08 0 00-.139.826 2.226 2.226 0 002.198 2.165zm-.519-2.657a.754.754 0 01.519-.239c.432 0 .682.377.698.732a.588.588 0 01-.18.425.753.753 0 01-.518.238c-.433 0-.683-.376-.699-.731a.594.594 0 01.18-.425z" fill="#fff" fill-opacity=".1"/><path d="M788.716 306.5h1.714a.75.75 0 000-1.5h-2.07c-.496-2.771-.19-5.862.909-9.406.205-.685.465-1.353.776-1.997a.758.758 0 00.085-.371.751.751 0 00-.75-.726h-30.763a.75.75 0 00-.665 1.096c.311.645.571 1.313.777 1.998 1.098 3.545 1.404 6.635.908 9.406h-2.07a.749.749 0 00-.53 1.28c.141.141.331.22.53.22h1.714a14.053 14.053 0 01-2.088 4.202c-3.284 4.574-4.952 7.9-4.957 13.386-.004 5.227 1.45 12.252 4.091 25.003l.341 1.666a.768.768 0 00.734.618h33.194a.766.766 0 00.734-.618l.341-1.656c2.64-12.751 4.095-19.781 4.09-25.009-.004-5.485-1.673-8.814-4.957-13.388a14.075 14.075 0 01-2.088-4.204zm-30.305 5.076a15.517 15.517 0 002.439-5.076h2.738l-1.312 1.341a.769.769 0 000 1.076.755.755 0 00.817.172.738.738 0 00.244-.162l2.592-2.59a.742.742 0 00.163-.816.742.742 0 00-.163-.243l-2.592-2.592a.752.752 0 00-1.28.516.708.708 0 00.219.515l1.312 1.283h-2.418c.472-2.929.133-6.168-1.008-9.85a17.715 17.715 0 00-.4-1.15h28.474c-.125.322-.262.709-.4 1.15-1.141 3.682-1.48 6.921-1.008 9.85h-2.419l1.313-1.283a.726.726 0 00.163-.806.755.755 0 00-.695-.456.753.753 0 00-.529.224l-2.593 2.596a.754.754 0 000 1.062l2.593 2.594a.75.75 0 001.061 0 .784.784 0 000-1.09l-1.313-1.341h2.739a15.514 15.514 0 002.438 5.076c.42.585.809 1.145 1.169 1.688l-2.883.577a70.384 70.384 0 01-27.746 0l-2.884-.577a59.09 59.09 0 011.169-1.688zm14.838 38.299h-15.236l-.217-1.068c-2.235-10.788-3.628-17.529-3.972-22.419 7.017.433 14.898 3.996 16.29 10.052a3.888 3.888 0 003.135 2.927v10.508zm16.953-1.068l-.217 1.068h-15.236v-10.544a3.833 3.833 0 002.931-2.893c.833-3.665 3.944-6.003 6.408-7.319 2.918-1.559 6.553-2.54 10.088-2.756-.341 4.891-1.736 11.637-3.974 22.444zm4.047-23.961c-3.796.208-7.721 1.269-10.868 2.95-3.928 2.098-6.405 4.971-7.164 8.308a2.388 2.388 0 01-4.641-.005c-.766-3.333-3.21-6.197-7.066-8.283-3.102-1.678-6.988-2.737-10.761-2.945-.07-2.706.244-4.837.988-6.869l3.8.76a78.71 78.71 0 0015.462 1.539 78.778 78.778 0 0015.462-1.538l3.8-.761c.741 2.025 1.055 4.15.988 6.844zm-1.579-8.256l-3.503.702a76.987 76.987 0 01-30.336 0l-3.503-.702c.305-.649.657-1.3 1.056-1.968l3.447.69a72.245 72.245 0 0014.168 1.41 72.235 72.235 0 0014.167-1.41l3.447-.69a22.81 22.81 0 011.057 1.968z" fill="#fff" fill-opacity=".1"/><path d="M758.315 337.825a.746.746 0 00-.88-.598.735.735 0 00-.48.318.747.747 0 00-.112.565 615.22 615.22 0 001.359 6.753.752.752 0 001.361.261.738.738 0 00.108-.563 643.75 643.75 0 01-1.356-6.736zM757.198 335.969a.764.764 0 00.482-.312.756.756 0 00.121-.561l-.108-.595a.747.747 0 00-1.353-.297.737.737 0 00-.123.561l.109.601a.745.745 0 00.579.598.741.741 0 00.293.005zM801.245 53.625h-.745v-2.971a2.272 2.272 0 00-2.249-2.279h-1.712c-.27.01-.536.063-.789.157v-1.908a2.23 2.23 0 00-.641-1.588 2.216 2.216 0 00-1.579-.661h-1.712c-1.243 0-2.193 1.005-2.193 2.248V53.5H770.75v-6.877a2.205 2.205 0 00-.634-1.586 2.208 2.208 0 00-1.574-.662h-1.713a2.21 2.21 0 00-2.204 2.248v1.909a2.63 2.63 0 00-.805-.157h-1.711a2.26 2.26 0 00-2.234 2.279v2.971h-.76a2.209 2.209 0 00-2.24 2.21v2.058a2.223 2.223 0 002.24 2.232h.76v2.95c0 1.243.99 2.3 2.234 2.3h1.711c.276-.017.548-.077.805-.178v1.909c0 1.243.962 2.269 2.205 2.269h1.712a2.231 2.231 0 002.208-2.27V60.25h18.875v6.856c0 1.243.95 2.269 2.193 2.269h1.712a2.244 2.244 0 002.06-1.408c.109-.274.164-.567.16-.861v-1.872c.216.074.44.121.667.141h1.957c1.175 0 2.126-1.002 2.126-2.177v-3.073h.745a2.234 2.234 0 002.081-1.373 2.24 2.24 0 00.174-.859v-2.057a2.221 2.221 0 00-2.255-2.211zm-41.37 5h-.76a.72.72 0 01-.686-.449.723.723 0 01-.054-.283v-2.057a.706.706 0 01.74-.711h.76v3.5zm4.75 4.37a.753.753 0 01-.755.755h-1.74a.753.753 0 01-.755-.755V50.63a.759.759 0 01.755-.755h1.74a.753.753 0 01.755.755v12.365zm4.625 4.11c0 .417-.292.77-.708.77h-1.713c-.416 0-.704-.368-.704-.784V46.624a.697.697 0 01.191-.526.713.713 0 01.514-.223h1.712a.708.708 0 01.665.466c.033.09.048.186.043.282v20.483zm20.375-8.355H770.75V55h18.875v3.75zm4.625 8.356a.742.742 0 01-.72.769h-1.712c-.416 0-.693-.353-.693-.77V46.624c0-.416.277-.748.693-.748h1.712a.72.72 0 01.72.748v20.483zm4.75-3.908a.669.669 0 01-.626.677h-1.957a.702.702 0 01-.667-.677V50.654a.806.806 0 01.789-.779h1.713a.771.771 0 01.748.779v12.544zm3-5.305a.72.72 0 01-.224.524.733.733 0 01-.531.208h-.745v-3.5h.745a.714.714 0 01.529.195.728.728 0 01.226.516v2.057z" fill="#fff" fill-opacity=".1"/><path d="M788.886 71.875h-.761v-2.95c0-1.243-.99-2.3-2.234-2.3h-1.711a2.662 2.662 0 00-.805.178v-1.909c0-1.243-.961-2.269-2.205-2.269h-1.712a2.231 2.231 0 00-2.208 2.27v6.855h-18.875v-6.856c0-1.243-.95-2.269-2.193-2.269h-1.712a2.244 2.244 0 00-2.06 1.408 2.249 2.249 0 00-.16.861v1.909c-.252-.1-.519-.16-.789-.178h-1.713c-1.243 0-2.248 1.057-2.248 2.3v2.95h-.745a2.234 2.234 0 00-2.081 1.373 2.24 2.24 0 00-.174.859v2.057a2.221 2.221 0 002.255 2.211h.745v2.971a2.272 2.272 0 002.249 2.279h1.712c.27-.01.536-.063.789-.157v1.908a2.23 2.23 0 00.641 1.588 2.216 2.216 0 001.579.661h1.712c1.243 0 2.193-1.005 2.193-2.249V78.5h18.875v6.876a2.205 2.205 0 00.634 1.587 2.208 2.208 0 001.574.662h1.713a2.21 2.21 0 002.204-2.249v-1.87c.222.067.45.107.682.119h1.957a2.138 2.138 0 002.111-2.156v-3.094h.761a2.207 2.207 0 002.239-2.21v-2.058a2.223 2.223 0 00-2.239-2.232zm-41.386 5h-.745a.714.714 0 01-.529-.195.728.728 0 01-.226-.516v-2.057a.72.72 0 01.224-.524.733.733 0 01.531-.208h.745v3.5zm4.75 4.37a.753.753 0 01-.755.755h-1.74a.753.753 0 01-.755-.755V68.88a.753.753 0 01.755-.755h1.74a.753.753 0 01.755.755v12.365zm4.625 4.131c0 .417-.277.749-.693.749h-1.712a.72.72 0 01-.72-.749V64.894a.742.742 0 01.72-.769h1.712c.416 0 .693.353.693.77v20.481zM777.25 77h-18.875v-3.75h18.875V77zm4.625 8.376a.715.715 0 01-.425.69.714.714 0 01-.28.059h-1.712a.708.708 0 01-.665-.466.715.715 0 01-.043-.283V64.894c0-.416.292-.769.708-.769h1.713c.416 0 .704.353.704.77v20.481zm4.75-3.907a.64.64 0 01-.611.656h-1.957a.696.696 0 01-.682-.656V68.925a.841.841 0 01.805-.8h1.711c.417 0 .734.384.734.8v12.544zm3-5.305a.706.706 0 01-.739.711h-.761v-3.5h.761a.719.719 0 01.685.449c.037.09.055.186.054.283v2.057z" fill="#fff" fill-opacity=".1"/><path d="M759.795 75.5h.787a.752.752 0 00.75-.75.752.752 0 00-.75-.75h-.787a.748.748 0 00-.75.75.749.749 0 00.75.75zM762.957 75.5h8.25a.748.748 0 00.75-.75.749.749 0 00-.75-.75h-8.25a.748.748 0 00-.75.75.749.749 0 00.75.75zM580.501 71.273a1.36 1.36 0 001.031 0c3.881-1.576 6.458-3.832 7.947-6.221a.74.74 0 00.34.073h2.491a.748.748 0 00.75-.75.749.749 0 00-.75-.75h-2.044l-.019-.025c.816-1.867 1.014-3.75.69-5.422l-.001-.002c-.612-3.041-2.818-5.005-5.62-5.005-1.376 0-2.851.5-4.294 1.45-1.459-.994-2.914-1.496-4.329-1.496-2.819 0-5.017 1.987-5.598 5.06-.828 4.323 1.76 10.046 9.406 13.088zm-7.933-12.807c.449-2.37 2.029-3.841 4.125-3.841 1.21 0 2.55.523 3.875 1.514a.749.749 0 00.89.006c1.325-.964 2.659-1.473 3.859-1.473 2.087 0 3.676 1.456 4.149 3.8a7.315 7.315 0 01-.148 3.42l-1.019-1.885a.75.75 0 00-1.304-.026l-2.664 4.477-2.654-6.371a.747.747 0 00-.642-.46.725.725 0 00-.698.342l-2.076 3.531h-3.538a.748.748 0 00-.75.75.749.749 0 00.75.75h3.968a.72.72 0 00.648-.344l1.533-2.614 2.647 6.364a.76.76 0 00.64.463.75.75 0 00.697-.362l2.751-4.625.97 1.794c-1.497 2.722-4.445 4.91-7.562 6.187-6.819-2.729-9.157-7.687-8.447-11.398zM569.623 75.375h-.33a.748.748 0 00-.75.75.749.749 0 00.75.75h.33a.748.748 0 00.75-.75.749.749 0 00-.75-.75zM575.413 75.375h-2.495a.748.748 0 00-.75.75.749.749 0 00.75.75h2.495a.75.75 0 000-1.5zM578.01 76.125a.752.752 0 00.75.75h15.946a.752.752 0 00.75-.75.752.752 0 00-.75-.75H578.76a.752.752 0 00-.75.75zM569.623 79.625h-.33a.748.748 0 00-.75.75.749.749 0 00.75.75h.33a.748.748 0 00.75-.75.749.749 0 00-.75-.75zM575.413 79.625h-2.495a.748.748 0 00-.75.75.749.749 0 00.75.75h2.495a.75.75 0 000-1.5zM594.706 79.625H578.76a.752.752 0 00-.75.75.752.752 0 00.75.75h15.946a.752.752 0 00.75-.75.752.752 0 00-.75-.75zM569.623 83.875h-.33a.748.748 0 00-.75.75.749.749 0 00.75.75h.33a.748.748 0 00.75-.75.749.749 0 00-.75-.75zM575.413 83.875h-2.495a.748.748 0 00-.75.75.749.749 0 00.75.75h2.495a.75.75 0 000-1.5zM594.706 83.875H578.76a.752.752 0 00-.75.75.752.752 0 00.75.75h15.946a.752.752 0 00.75-.75.752.752 0 00-.75-.75z" fill="#fff" fill-opacity=".1"/><path d="M600.823 41.374H586.25v-.653a4.25 4.25 0 00-8.5 0v.653h-14.573c-1.696 0-3.052 1.425-3.052 3.12v47.928a3.07 3.07 0 00.888 2.172 3.048 3.048 0 002.164.905h37.646a3.06 3.06 0 003.052-3.077V44.495c0-1.696-1.356-3.121-3.052-3.121zm-21.573 1.904v-2.557a2.75 2.75 0 015.5 0v2.557a1.687 1.687 0 00.491 1.203 1.694 1.694 0 001.2.502h2.433a1.63 1.63 0 011.626 1.636v1.38h-17v-1.38a1.622 1.622 0 011.631-1.62h2.442a1.695 1.695 0 001.677-1.72zm-6.505 6.22h18.511a.75.75 0 00.744-.752V47.31l5.28-.046a.471.471 0 01.47.47v41.14h-31.5V47.732a.48.48 0 01.465-.482H572v1.497a.742.742 0 00.458.694.75.75 0 00.287.059zm29.63 42.924a1.546 1.546 0 01-.448 1.112 1.557 1.557 0 01-1.104.465h-37.646a1.556 1.556 0 01-1.439-.977 1.564 1.564 0 01-.113-.6V44.495c0-.87.683-1.621 1.552-1.621h14.573v.404a.205.205 0 01-.006.078.195.195 0 01-.171.142h-2.442a3.193 3.193 0 00-3.017 2.25h-5.399a1.979 1.979 0 00-1.965 1.984v41.953c0 .415.333.689.747.689h33.006c.415 0 .747-.274.747-.689V47.732a1.972 1.972 0 00-1.974-1.97l-5.378.047a3.13 3.13 0 00-3.029-2.318l-2.429.008a.21.21 0 01-.19-.221v-.404h14.573c.869 0 1.552.751 1.552 1.62v47.928z" fill="#fff" fill-opacity=".1"/><path d="M568.625 52.082a.748.748 0 00.75-.75v-.787a.749.749 0 00-1.28-.53.749.749 0 00-.22.53v.787a.75.75 0 00.75.75zM569.375 61.955v-8.25a.75.75 0 10-1.5 0v8.25a.749.749 0 001.28.53.749.749 0 00.22-.53zM966 90.594a3.999 3.999 0 004-3.963V61.118a3.997 3.997 0 00-4-4 3.999 3.999 0 00-4 4v25.513a4.001 4.001 0 004 3.963zm-2.5-5.095h2a.748.748 0 00.75-.75.749.749 0 00-.75-.75h-2v-2h1.25a.748.748 0 00.75-.75.749.749 0 00-.75-.75h-1.25v-2.125h2a.748.748 0 00.75-.75.749.749 0 00-.75-.75h-2V74.75h1.25a.748.748 0 00.75-.75.749.749 0 00-.75-.75h-1.25v-2.125h2a.748.748 0 00.75-.75.749.749 0 00-.75-.75h-2v-2h1.25a.748.748 0 00.75-.75.749.749 0 00-.75-.75h-1.25V64h2a.748.748 0 00.75-.75.749.749 0 00-.75-.75h-2v-1.38a2.499 2.499 0 115 0V86.63a2.499 2.499 0 11-5 0v-1.132z" fill="#fff" fill-opacity=".1"/><path d="M980.514 46.875h-3.266v-5.057a5.35 5.35 0 00-5.35-5.318h-7.962a5.35 5.35 0 00-5.261 4.5h-4.296a1.544 1.544 0 00-1.506 1.542v4.333h-1.39a3.18 3.18 0 00-3.173 2.942 3.182 3.182 0 002.692 3.387l2.739 39.272a3.26 3.26 0 003.242 3.024h18.031a3.26 3.26 0 003.242-3.024l2.739-39.27a3.184 3.184 0 00-.481-6.331zM963.936 38h7.962a3.851 3.851 0 013.85 3.818v5.057h-9.875v-4.333A1.556 1.556 0 00964.347 41h-4.151a3.773 3.773 0 013.74-3zm-9.563 4.5h10v4.375h-10V42.5zm22.387 49.876A1.75 1.75 0 01975.014 94h-18.031a1.753 1.753 0 01-1.746-1.624l-2.729-39.126h26.981l-2.729 39.126zm3.754-40.626h-29.031a1.69 1.69 0 01-1.688-1.688 1.689 1.689 0 011.688-1.687h29.031a1.69 1.69 0 011.688 1.688 1.689 1.689 0 01-1.688 1.687z" fill="#fff" fill-opacity=".1"/><path d="M954.773 57.99a.752.752 0 00.749.715h.035a.75.75 0 00.715-.784l-.036-.786a.754.754 0 00-.784-.715.75.75 0 00-.715.783l.036.786zM955.597 59.579a.756.756 0 00-.52.243.732.732 0 00-.151.251.732.732 0 00-.044.29l.377 8.24a.753.753 0 001.068.646.76.76 0 00.387-.425.75.75 0 00.044-.289l-.378-8.241a.749.749 0 00-.783-.715zM211.238 823.752h3.142a.757.757 0 00.529-.222.74.74 0 00.216-.531v-3.829a.747.747 0 00-.22-.53.747.747 0 00-1.06 0 .747.747 0 00-.22.53v3.082h-2.387a.752.752 0 00-.75.75.749.749 0 00.75.75z" fill="#fff" fill-opacity=".1"/><path d="M214.391 830.345a8.21 8.21 0 10-8.209-8.21 8.22 8.22 0 008.209 8.21zm-6.67-8.929a6.676 6.676 0 011.421-3.453.743.743 0 001.002-.051.742.742 0 00.045-1.002 6.676 6.676 0 013.409-1.436.749.749 0 001.494-.011 6.673 6.673 0 013.473 1.425.747.747 0 001.057 1.052 6.681 6.681 0 011.439 3.474.744.744 0 00-.719.745.751.751 0 00.712.751 6.674 6.674 0 01-1.436 3.425.745.745 0 00-1.057 1.051 6.684 6.684 0 01-3.469 1.422.75.75 0 00-1.494-.012 6.682 6.682 0 01-3.405-1.432.747.747 0 00-1.047-1.052 6.68 6.68 0 01-1.419-3.405.751.751 0 00.471-1.248.754.754 0 00-.477-.243z" fill="#fff" fill-opacity=".1"/><path d="M214.391 832.51a10.376 10.376 0 003.579-20.113l-3.001-3.787a.746.746 0 00-.914-.209.737.737 0 00-.261.209l-3.011 3.798a10.376 10.376 0 003.608 20.102zm-.01-22.227l1.229 1.55a10.124 10.124 0 00-2.46.003l1.231-1.553zm.01 2.977c1.755 0 3.471.52 4.931 1.495a8.88 8.88 0 013.773 9.111 8.869 8.869 0 01-6.973 6.973 8.871 8.871 0 01-8.004-14.977 8.882 8.882 0 016.273-2.602zM227.25 841.512v-3.049a2.934 2.934 0 00-.849-2.088 2.948 2.948 0 00-2.077-.874h-40.091a2.962 2.962 0 00-2.409-1.25h-12.349a1.49 1.49 0 00-1.475 1.511v12.412a1.448 1.448 0 00.43 1.039 1.438 1.438 0 001.045.413h1.15v9.301a.676.676 0 00.439.656.683.683 0 00.276.043h4.034c.414 0 .751-.285.751-.699v-9.301h44.25v9.301a.677.677 0 00.428.655c.087.034.18.049.273.044h4.034c.414 0 .765-.285.765-.699v-9.301h.65a1.438 1.438 0 001.475-1.451v-5.913c0-.415-.25-.75-.75-.75zm-42.5-4.299c.011-.07.017-.141.018-.212h39.556a1.437 1.437 0 011.324.907c.07.176.105.365.102.555v3.038h-41v-4.288zm-15.25-1.462h12.324a1.437 1.437 0 011.324.907c.07.176.105.365.102.555v4.288H169.5v-5.75zm5.125 22.375h-2.5v-8.5h2.5v8.5zm49.75 0h-2.5v-8.5h2.5v8.5zm2.125-10h-57v-5.125h57v5.125z" fill="#fff" fill-opacity=".1"/><path d="M171.168 845.876h.787a.749.749 0 00.53-1.28.749.749 0 00-.53-.22h-.787a.747.747 0 00-.53.22.747.747 0 000 1.06c.14.141.331.22.53.22zM174.332 845.876h8.25c.199 0 .39-.079.53-.22a.747.747 0 000-1.06.747.747 0 00-.53-.22h-8.25a.747.747 0 00-.53.22.747.747 0 000 1.06c.14.141.331.22.53.22zM418.75 804.501h-10.485a.757.757 0 00-.589.286.747.747 0 00-.14.64 2.808 2.808 0 01-1.5 3.183 2.798 2.798 0 01-2.451 0 2.8 2.8 0 01-1.515-1.926 2.808 2.808 0 01.015-1.257.747.747 0 00-.729-.926h-31.812a.79.79 0 00-.794.75v7.5h-7.5a.79.79 0 00-.75.794v49.206c0 .199.079.39.22.53.14.141.331.22.53.22h6.41a.746.746 0 00.599-.299.753.753 0 00.121-.658 4.557 4.557 0 01.737-3.992 4.547 4.547 0 018.003 3.992.755.755 0 00.122.658.74.74 0 00.599.299h32.615a.79.79 0 00.794-.75v-6.625h7.5a.736.736 0 00.283-.044.733.733 0 00.407-.386.716.716 0 00.06-.281v-18.519a.75.75 0 00-.957-.721 4.544 4.544 0 01-5.326-2.34 4.537 4.537 0 010-4.059 4.538 4.538 0 013.243-2.442 4.544 4.544 0 012.083.102.741.741 0 00.658-.122.75.75 0 00.299-.599v-21.464a.747.747 0 00-.22-.53.747.747 0 00-.53-.22zm-9 57.5h-30.995a6.04 6.04 0 00-6.005-6.763 6.04 6.04 0 00-4.522 2.032 6.04 6.04 0 00-1.482 4.731H362v-47.75h17.251l-.002.178a4.802 4.802 0 00.358 1.841 4.803 4.803 0 002.597 2.607 4.798 4.798 0 005.236-1.048 4.791 4.791 0 001.393-3.405l-.002-.173h20.919v33.045c-.125 0-.079-.001-.108-.001a4.303 4.303 0 00-3.039 7.35 4.3 4.3 0 003.044 1.259l.103-.001v6.098zm7.536-24.149c.239 0 .477-.014.714-.042v16.816h-6.902a.787.787 0 00-.466-.305.77.77 0 00-.341.004 2.804 2.804 0 11-.01-5.451.792.792 0 00.882-.4.771.771 0 00.087-.329v-15.993a6.051 6.051 0 006.036 5.7zm.714-12.051a6.05 6.05 0 00-4.598 1.37 6.048 6.048 0 00-2.152 4.288v-17.914a.822.822 0 00-.242-.552.822.822 0 00-.552-.242H387.98a.792.792 0 00-.587.305.79.79 0 00-.144.645 3.328 3.328 0 01-.2 2.092 3.298 3.298 0 01-2.006 1.798 3.3 3.3 0 01-2.678-.302 3.287 3.287 0 01-1.532-3.578.783.783 0 00-.144-.656.767.767 0 00-.587-.304h-9.852v-6.75h30.257l-.001.086a4.305 4.305 0 008.609 0l-.001-.086H418v19.8z" fill="#fff" fill-opacity=".1"/><path d="M371.7 824.154a4.294 4.294 0 00-3.971 2.653 4.3 4.3 0 007.545 4.033 4.301 4.301 0 00.724-2.388 4.302 4.302 0 00-4.298-4.298zm0 7.096a2.799 2.799 0 110-5.599 2.799 2.799 0 010 5.599zM390.961 846.501a4.705 4.705 0 00-4.343 2.902 4.706 4.706 0 001.019 5.124 4.702 4.702 0 008.026-3.325 4.705 4.705 0 00-4.702-4.701zm0 7.903a3.197 3.197 0 01-1.778-.54 3.198 3.198 0 01-.486-4.925 3.198 3.198 0 014.926.485 3.197 3.197 0 01-.399 4.041c-.6.6-1.414.938-2.263.939zM400.738 825.688a4.74 4.74 0 00-4.647 5.662 4.74 4.74 0 008.586 1.708c.52-.779.798-1.695.798-2.632a4.745 4.745 0 00-4.737-4.738zm0 7.976a3.241 3.241 0 01-2.992-1.998 3.239 3.239 0 014.23-4.23 3.233 3.233 0 011.999 2.991 3.241 3.241 0 01-3.237 3.238v-.001zM364.625 817.046a.747.747 0 00-.53.22.747.747 0 00-.22.53v.787a.75.75 0 001.5 0v-.787a.747.747 0 00-.22-.53.747.747 0 00-.53-.22zM364.625 820.206a.747.747 0 00-.53.22.747.747 0 00-.22.53v8.25a.742.742 0 00.22.53.742.742 0 00.817.163.742.742 0 00.406-.406.742.742 0 00.057-.287v-8.25a.747.747 0 00-.22-.53.747.747 0 00-.53-.22zM993.245 821.626h-.745v-2.971a2.273 2.273 0 00-2.249-2.279h-1.712c-.27.01-.536.063-.789.157v-1.909a2.227 2.227 0 00-1.364-2.076 2.225 2.225 0 00-.856-.172h-1.712c-1.243 0-2.193 1.005-2.193 2.248v6.877H962.75v-6.877a2.2 2.2 0 00-.158-.856 2.215 2.215 0 00-2.05-1.392h-1.713a2.23 2.23 0 00-.853.173 2.229 2.229 0 00-1.195 1.219 2.22 2.22 0 00-.156.856v1.909a2.632 2.632 0 00-.805-.157h-1.711a2.26 2.26 0 00-2.234 2.279v2.971h-.76a2.22 2.22 0 00-1.583.636 2.209 2.209 0 00-.657 1.575v2.057a2.214 2.214 0 001.382 2.066c.272.112.564.168.858.166h.76v2.95c0 1.243.99 2.3 2.234 2.3h1.711c.276-.017.548-.077.805-.178v1.908c0 1.244.962 2.27 2.205 2.27h1.712a2.23 2.23 0 002.208-2.27v-6.855h18.875v6.855c0 1.244.95 2.27 2.193 2.27h1.712a2.245 2.245 0 002.22-2.27v-1.871c.216.074.44.121.667.141h1.957c1.175 0 2.126-1.002 2.126-2.177v-3.073h.745a2.242 2.242 0 002.081-1.373c.114-.272.173-.564.174-.859v-2.057a2.22 2.22 0 00-2.255-2.211zm-41.37 5h-.76a.722.722 0 01-.74-.732v-2.057a.71.71 0 01.458-.667.713.713 0 01.282-.044h.76v3.5zm4.75 4.37a.756.756 0 01-.755.755h-1.74a.753.753 0 01-.755-.755v-12.365a.753.753 0 01.755-.755h1.74a.752.752 0 01.755.755v12.365zm4.625 4.11c0 .417-.292.77-.708.77h-1.713c-.416 0-.704-.368-.704-.784v-20.468a.693.693 0 01.191-.525.708.708 0 01.514-.223h1.712a.706.706 0 01.514.223.714.714 0 01.194.525v20.482zm20.375-8.355H962.75v-3.75h18.875v3.75zm4.625 8.355a.744.744 0 01-.436.705.75.75 0 01-.284.065h-1.712c-.416 0-.693-.353-.693-.77v-20.482c0-.416.277-.748.693-.748h1.712a.719.719 0 01.673.464.71.71 0 01.047.284v20.482zm4.75-3.907a.668.668 0 01-.626.677h-1.957a.703.703 0 01-.667-.677v-12.544a.807.807 0 01.789-.779h1.713a.77.77 0 01.748.779v12.544zm3-5.305a.73.73 0 01-.755.732h-.745v-3.5h.745a.72.72 0 01.755.711v2.057z" fill="#fff" fill-opacity=".1"/><path d="M980.886 839.876h-.761v-2.95c0-1.243-.99-2.3-2.234-2.3h-1.711a2.647 2.647 0 00-.805.178v-1.909c0-1.243-.961-2.269-2.205-2.269h-1.712a2.23 2.23 0 00-2.208 2.269v6.856h-18.875v-6.856c0-1.243-.95-2.269-2.193-2.269h-1.712a2.245 2.245 0 00-2.22 2.269v1.909a2.555 2.555 0 00-.789-.178h-1.713c-1.243 0-2.248 1.057-2.248 2.3v2.95h-.745a2.242 2.242 0 00-2.081 1.373 2.242 2.242 0 00-.174.859v2.057a2.223 2.223 0 002.255 2.211h.745v2.971a2.273 2.273 0 002.249 2.279h1.712c.27-.01.536-.063.789-.157v1.908a2.228 2.228 0 00.641 1.588 2.228 2.228 0 001.579.661h1.712c1.243 0 2.193-1.005 2.193-2.249v-6.876h18.875v6.876a2.202 2.202 0 00.634 1.587 2.215 2.215 0 001.574.662h1.713a2.23 2.23 0 00.853-.173 2.229 2.229 0 001.195-1.219c.108-.272.161-.564.156-.857v-1.871c.222.068.45.108.682.12h1.957a2.138 2.138 0 002.111-2.156v-3.094h.761a2.218 2.218 0 001.582-.636 2.209 2.209 0 00.657-1.575v-2.057a2.214 2.214 0 00-1.382-2.066 2.213 2.213 0 00-.857-.166zm-41.386 5h-.745a.72.72 0 01-.755-.711v-2.057a.73.73 0 01.755-.732h.745v3.5zm4.75 4.37a.756.756 0 01-.755.755h-1.74a.753.753 0 01-.755-.755v-12.365a.752.752 0 01.755-.755h1.74a.752.752 0 01.755.755v12.365zm4.625 4.131c0 .417-.277.749-.693.749h-1.712a.719.719 0 01-.673-.464.712.712 0 01-.047-.285v-20.482a.74.74 0 01.72-.769h1.712c.416 0 .693.353.693.769v20.482zm20.375-8.376h-18.875v-3.75h18.875v3.75zm4.625 8.376a.716.716 0 01-.192.526.704.704 0 01-.513.223h-1.712a.724.724 0 01-.514-.223.714.714 0 01-.194-.526v-20.482c0-.416.292-.769.708-.769h1.713c.416 0 .704.353.704.769v20.482zm4.75-3.907a.64.64 0 01-.611.656h-1.957a.695.695 0 01-.682-.656v-12.544a.844.844 0 01.805-.8h1.711c.417 0 .734.384.734.8v12.544zm3-5.305a.71.71 0 01-.458.667.73.73 0 01-.281.044h-.761v-3.5h.761a.72.72 0 01.739.732v2.057z" fill="#fff" fill-opacity=".1"/><path d="M951.795 843.501h.787a.75.75 0 000-1.5h-.787a.747.747 0 00-.53.22.747.747 0 000 1.06c.14.141.331.22.53.22zM954.957 843.501h8.25c.199 0 .39-.079.53-.22a.747.747 0 000-1.06.747.747 0 00-.53-.22h-8.25a.747.747 0 00-.53.22.747.747 0 000 1.06c.14.141.331.22.53.22zM590.77 832.093a7.144 7.144 0 00-5.052 12.198 7.15 7.15 0 007.787 1.549 7.146 7.146 0 004.411-6.602 7.152 7.152 0 00-7.146-7.145zm0 12.791a5.647 5.647 0 110-11.293 5.647 5.647 0 010 11.293zM559.454 824.512a.752.752 0 00-1.012.319 29.09 29.09 0 00-.32.637.747.747 0 00.109.831.742.742 0 00.519.253.759.759 0 00.721-.427c.098-.204.2-.406.302-.601a.749.749 0 00-.319-1.012zM558.031 827.494a.748.748 0 00-.967.437 32.57 32.57 0 00-1.968 8.705.756.756 0 00.405.729.774.774 0 00.344.082.748.748 0 00.747-.689 30.992 30.992 0 011.876-8.298.751.751 0 00-.437-.966z" fill="#fff" fill-opacity=".1"/><path d="M605.859 831.025c-.879-3.913-2.432-7.543-4.393-10.251-2.284-3.155-4.929-4.822-7.65-4.822-2.518 0-4.967 1.425-7.127 4.135a16.38 16.38 0 00-.709-.833c-1.979-2.16-4.198-3.302-6.417-3.302-2.53 0-4.99 1.443-7.13 4.13-2.158-2.707-4.606-4.131-7.123-4.131-3.388 0-6.651 2.588-9.187 7.288-2.269 4.203-3.623 9.592-3.623 14.416 0 4.727 1.261 8.404 3.748 10.931 2.23 2.265 5.364 3.462 9.062 3.462 2.7 0 5.152-.658 7.128-1.905 1.978 1.251 4.397 1.905 7.125 1.905a14.423 14.423 0 004.631-.723c1.66.482 3.528.723 5.603.724 4.823 0 10.212-1.354 14.415-3.622 4.7-2.537 7.288-5.8 7.288-9.188 0-2.97-1.988-5.843-5.641-8.214zm-12.042-13.574c1.547 0 3.92.729 6.434 4.202 1.613 2.227 2.935 5.133 3.8 8.312-4.058-2.152-9.184-3.459-13.837-3.533a25.937 25.937 0 00-2.602-5.087c2.424-3.203 4.698-3.894 6.205-3.894zm-28.507 33.098c-3.287 0-6.051-1.043-7.993-3.016-2.201-2.235-3.317-5.559-3.317-9.878 0-4.587 1.287-9.709 3.442-13.704 2.23-4.131 5.097-6.5 7.868-6.5 1.507 0 3.781.691 6.205 3.893a23.92 23.92 0 00-1.14 1.895c-2.268 4.203-3.622 9.592-3.622 14.416 0 4.727 1.261 8.404 3.748 10.931.202.205.413.398.63.585-1.645.903-3.634 1.378-5.821 1.378zm14.253 0c-3.287 0-6.051-1.043-7.993-3.016-2.201-2.235-3.317-5.559-3.317-9.878 0-4.587 1.287-9.709 3.442-13.704 2.23-4.131 5.098-6.5 7.868-6.5 3.359 0 6.77 3.423 9.048 9.005-4.16.197-7.435 1.445-9.745 3.72-2.266 2.231-3.464 5.364-3.464 9.063 0 3.698 1.198 6.831 3.464 9.062.856.839 1.838 1.54 2.909 2.078-.732.114-1.471.171-2.212.17zm23.937-3.443c-3.994 2.156-9.117 3.443-13.703 3.443-4.32 0-7.643-1.116-9.879-3.317-1.973-1.942-3.015-4.707-3.015-7.994s1.042-6.051 3.015-7.993c2.236-2.201 5.559-3.317 9.879-3.317 4.586 0 9.709 1.287 13.703 3.442 4.131 2.23 6.5 5.097 6.5 7.868s-2.369 5.639-6.5 7.868zM749.615 817.001h-.115a.747.747 0 00-.53.22.747.747 0 000 1.06c.14.141.331.22.53.22h.115a.75.75 0 000-1.5zM752.485 817.751a.747.747 0 00-.22-.53.747.747 0 00-.53-.22h-.075a.747.747 0 00-.53.22.747.747 0 000 1.06c.14.141.331.22.53.22h.075c.199 0 .39-.079.53-.22a.747.747 0 00.22-.53zM754.662 818.501h.035c.199 0 .39-.079.53-.22a.747.747 0 000-1.06.747.747 0 00-.53-.22h-.035a.747.747 0 00-.53.22.747.747 0 000 1.06c.14.141.331.22.53.22zM798.499 817.001h-.114a.75.75 0 000 1.5h.114a.75.75 0 000-1.5zM796.341 817.001h-.075a.75.75 0 000 1.5h.075a.749.749 0 00.53-1.28.749.749 0 00-.53-.22zM793.303 818.501h.035a.749.749 0 00.53-1.28.749.749 0 00-.53-.22h-.035a.75.75 0 000 1.5zM774.002 819.29a2.244 2.244 0 001.602-.702 2.067 2.067 0 00.595-1.529 2.191 2.191 0 00-3.8-1.463c-.198.201-.353.44-.456.703a2.08 2.08 0 00-.139.826 2.226 2.226 0 002.198 2.165zm-.519-2.657a.754.754 0 01.519-.239c.432 0 .682.377.698.732a.588.588 0 01-.18.425.753.753 0 01-.518.238c-.433 0-.683-.376-.699-.731a.594.594 0 01.18-.425z" fill="#fff" fill-opacity=".1"/><path d="M788.716 818.501h1.714a.75.75 0 000-1.5h-2.07c-.496-2.771-.19-5.862.909-9.406.205-.685.465-1.353.776-1.997a.758.758 0 00.085-.371.751.751 0 00-.75-.726h-30.763a.75.75 0 00-.665 1.096c.311.644.571 1.313.777 1.998 1.098 3.545 1.404 6.635.908 9.406h-2.07a.749.749 0 00-.53 1.28c.141.141.331.22.53.22h1.714a14.053 14.053 0 01-2.088 4.202c-3.284 4.574-4.952 7.9-4.957 13.385-.004 5.228 1.45 12.253 4.091 25.004l.341 1.666a.768.768 0 00.734.618h33.194a.766.766 0 00.734-.618l.341-1.656c2.64-12.751 4.095-19.781 4.09-25.009-.004-5.485-1.673-8.814-4.957-13.388a14.075 14.075 0 01-2.088-4.204zm-30.305 5.076a15.517 15.517 0 002.439-5.076h2.738l-1.312 1.341a.769.769 0 000 1.075.752.752 0 00.817.173.738.738 0 00.244-.162l2.592-2.59a.742.742 0 00.163-.816.742.742 0 00-.163-.243l-2.592-2.592a.752.752 0 00-1.28.516.712.712 0 00.219.515l1.312 1.283h-2.418c.472-2.929.133-6.168-1.008-9.85a17.715 17.715 0 00-.4-1.15h28.474c-.125.322-.262.709-.4 1.15-1.141 3.681-1.48 6.921-1.008 9.85h-2.419l1.313-1.283a.726.726 0 00.163-.806.755.755 0 00-.695-.456.753.753 0 00-.529.224l-2.593 2.596a.754.754 0 000 1.062l2.593 2.594a.75.75 0 001.061 0 .784.784 0 000-1.09l-1.313-1.341h2.739a15.514 15.514 0 002.438 5.076c.42.585.809 1.145 1.169 1.688l-2.883.577a70.384 70.384 0 01-27.746 0l-2.884-.577a59.09 59.09 0 011.169-1.688zm14.838 38.299h-15.236l-.217-1.068c-2.235-10.788-3.628-17.53-3.972-22.42 7.017.434 14.898 3.997 16.29 10.053a3.888 3.888 0 003.135 2.927v10.508zm16.953-1.068l-.217 1.068h-15.236v-10.544a3.833 3.833 0 002.931-2.894c.833-3.664 3.944-6.002 6.408-7.318 2.918-1.559 6.553-2.54 10.088-2.756-.341 4.891-1.736 11.637-3.974 22.444zm4.047-23.961c-3.796.208-7.721 1.269-10.868 2.95-3.928 2.098-6.405 4.971-7.164 8.308a2.388 2.388 0 01-4.641-.005c-.766-3.333-3.21-6.197-7.066-8.283-3.102-1.678-6.988-2.737-10.761-2.945-.07-2.706.244-4.837.988-6.869l3.8.76a78.71 78.71 0 0015.462 1.539 78.703 78.703 0 0015.462-1.539l3.8-.76c.741 2.025 1.055 4.149.988 6.844zm-1.579-8.256l-3.503.702a76.987 76.987 0 01-30.336 0l-3.503-.702c.305-.65.657-1.3 1.056-1.968l3.447.689a72.17 72.17 0 0014.168 1.411 72.16 72.16 0 0014.167-1.411l3.447-.689a22.81 22.81 0 011.057 1.968z" fill="#fff" fill-opacity=".1"/><path d="M758.315 849.826a.746.746 0 00-.88-.598.735.735 0 00-.48.318.747.747 0 00-.112.565 615.22 615.22 0 001.359 6.753.752.752 0 001.361.261.738.738 0 00.108-.563 643.75 643.75 0 01-1.356-6.736zM757.198 847.97a.764.764 0 00.482-.312.756.756 0 00.121-.561l-.108-.596a.75.75 0 10-1.476.265l.109.601a.745.745 0 00.579.598.741.741 0 00.293.005zM499.238 439.751h3.142a.757.757 0 00.529-.222.74.74 0 00.216-.531v-3.829a.747.747 0 00-.22-.53.747.747 0 00-1.06 0 .747.747 0 00-.22.53v3.082h-2.387a.752.752 0 00-.75.75.749.749 0 00.75.75z" fill="#fff" fill-opacity=".1"/><path d="M502.391 446.344a8.21 8.21 0 10-8.209-8.21 8.22 8.22 0 008.209 8.21zm-6.67-8.929a6.676 6.676 0 011.421-3.453.743.743 0 001.002-.051.742.742 0 00.045-1.002 6.676 6.676 0 013.409-1.436.749.749 0 001.494-.011 6.673 6.673 0 013.473 1.425.747.747 0 001.057 1.052 6.681 6.681 0 011.439 3.474.744.744 0 00-.719.745.751.751 0 00.712.751 6.674 6.674 0 01-1.436 3.425.745.745 0 00-1.057 1.051 6.684 6.684 0 01-3.469 1.422.75.75 0 00-1.494-.012 6.682 6.682 0 01-3.405-1.432.747.747 0 00-1.047-1.052 6.68 6.68 0 01-1.419-3.405.751.751 0 00.471-1.248.754.754 0 00-.477-.243z" fill="#fff" fill-opacity=".1"/><path d="M502.391 448.509a10.376 10.376 0 003.579-20.113l-3.001-3.787a.746.746 0 00-.914-.209.737.737 0 00-.261.209l-3.011 3.798a10.376 10.376 0 003.608 20.102zm-.01-22.227l1.229 1.55a10.124 10.124 0 00-2.46.003l1.231-1.553zm.01 2.977c1.755 0 3.471.52 4.931 1.495a8.88 8.88 0 013.773 9.111 8.869 8.869 0 01-6.973 6.973 8.871 8.871 0 01-8.004-14.977 8.882 8.882 0 016.273-2.602zM515.25 457.511v-3.049a2.934 2.934 0 00-.849-2.088 2.944 2.944 0 00-2.077-.874h-40.091a2.962 2.962 0 00-2.409-1.25h-12.349a1.49 1.49 0 00-1.475 1.511v12.412a1.448 1.448 0 00.43 1.039 1.438 1.438 0 001.045.413h1.15v9.301a.676.676 0 00.439.656.667.667 0 00.276.043h4.034c.414 0 .751-.285.751-.699v-9.301h44.25v9.301a.677.677 0 00.428.655c.087.034.18.049.273.044h4.034c.414 0 .765-.285.765-.699v-9.301h.65a1.438 1.438 0 001.475-1.451v-5.913c0-.415-.25-.75-.75-.75zm-42.5-4.299c.011-.07.017-.141.018-.212h39.556a1.437 1.437 0 011.324.907c.07.177.105.365.102.555v3.038h-41v-4.288zm-15.25-1.462h12.324a1.437 1.437 0 011.324.907c.07.177.105.365.102.555v4.288H457.5v-5.75zm5.125 22.375h-2.5v-8.5h2.5v8.5zm49.75 0h-2.5v-8.5h2.5v8.5zm2.125-10h-57V459h57v5.125z" fill="#fff" fill-opacity=".1"/><path d="M459.168 461.875h.787a.749.749 0 00.53-1.28.749.749 0 00-.53-.22h-.787a.747.747 0 00-.53.22.747.747 0 000 1.06c.14.141.331.22.53.22zM462.332 461.875h8.25c.199 0 .39-.079.53-.22a.747.747 0 000-1.06.747.747 0 00-.53-.22h-8.25a.747.747 0 00-.53.22.747.747 0 000 1.06c.14.141.331.22.53.22zM706.75 420.5h-10.485a.757.757 0 00-.589.286.747.747 0 00-.14.64 2.808 2.808 0 01-1.5 3.183 2.798 2.798 0 01-2.451 0 2.8 2.8 0 01-1.515-1.926 2.808 2.808 0 01.015-1.257.747.747 0 00-.729-.926h-31.812a.79.79 0 00-.794.75v7.5h-7.5a.79.79 0 00-.75.794v49.206c0 .199.079.39.22.53.14.141.331.22.53.22h6.41a.746.746 0 00.599-.299.753.753 0 00.121-.658 4.557 4.557 0 01.737-3.992 4.547 4.547 0 018.003 3.992.755.755 0 00.122.658.74.74 0 00.599.299h32.615a.79.79 0 00.794-.75v-6.625h7.5a.736.736 0 00.283-.044.733.733 0 00.407-.386.716.716 0 00.06-.281v-18.519a.75.75 0 00-.957-.721 4.544 4.544 0 01-5.326-2.34 4.537 4.537 0 010-4.059 4.538 4.538 0 013.243-2.442 4.544 4.544 0 012.083.102.741.741 0 00.658-.122.75.75 0 00.299-.599V421.25a.747.747 0 00-.22-.53.747.747 0 00-.53-.22zm-9 57.5h-30.995a6.042 6.042 0 00-1.483-4.731 6.041 6.041 0 00-4.522-2.032 6.04 6.04 0 00-4.522 2.032 6.04 6.04 0 00-1.482 4.731H650v-47.75h17.251l-.002.178a4.802 4.802 0 00.358 1.841 4.803 4.803 0 002.597 2.607 4.798 4.798 0 005.236-1.048 4.791 4.791 0 001.393-3.405l-.002-.173h20.919v33.045c-.125 0-.079-.001-.108-.001a4.303 4.303 0 00-3.039 7.35 4.3 4.3 0 003.044 1.259l.103-.001V478zm7.536-24.148c.239-.001.477-.015.714-.043v16.816h-6.902a.787.787 0 00-.466-.305.77.77 0 00-.341.004 2.804 2.804 0 11-.01-5.451.792.792 0 00.882-.4.771.771 0 00.087-.329v-15.993a6.051 6.051 0 006.036 5.701zM706 441.8a6.055 6.055 0 00-6.118 3.291 6.048 6.048 0 00-.632 2.367v-17.914a.826.826 0 00-.794-.794H675.98a.792.792 0 00-.587.305.79.79 0 00-.144.645 3.328 3.328 0 01-.2 2.092 3.298 3.298 0 01-2.006 1.798 3.3 3.3 0 01-2.678-.302 3.287 3.287 0 01-1.532-3.578.783.783 0 00-.144-.656.767.767 0 00-.587-.304h-9.852V422h30.257l-.001.086a4.305 4.305 0 008.609 0l-.001-.086H706v19.8z" fill="#fff" fill-opacity=".1"/><path d="M659.7 440.153a4.294 4.294 0 00-3.971 2.653 4.302 4.302 0 00.932 4.684 4.299 4.299 0 007.337-3.039 4.302 4.302 0 00-4.298-4.298zm0 7.096a2.799 2.799 0 110-5.599 2.799 2.799 0 010 5.599zM678.961 462.5a4.705 4.705 0 00-4.343 2.902 4.706 4.706 0 001.019 5.124 4.702 4.702 0 008.026-3.324 4.706 4.706 0 00-4.702-4.702zm0 7.903a3.197 3.197 0 01-1.778-.54 3.198 3.198 0 01-.486-4.925 3.199 3.199 0 013.489-.694 3.198 3.198 0 011.038 5.22c-.6.6-1.414.938-2.263.939zM688.738 441.688a4.739 4.739 0 00-4.377 2.924 4.732 4.732 0 001.027 5.163 4.74 4.74 0 008.087-3.35 4.745 4.745 0 00-4.737-4.737zm0 7.975a3.241 3.241 0 01-2.992-1.998 3.239 3.239 0 014.23-4.23 3.233 3.233 0 011.999 2.991 3.241 3.241 0 01-3.237 3.238v-.001zM652.625 433.045a.747.747 0 00-.53.22.747.747 0 00-.22.53v.787a.75.75 0 001.5 0v-.787a.747.747 0 00-.22-.53.747.747 0 00-.53-.22zM652.625 436.205a.747.747 0 00-.53.22.747.747 0 00-.22.53v8.25a.742.742 0 00.22.53.742.742 0 00.817.163.742.742 0 00.406-.406.742.742 0 00.057-.287v-8.25a.747.747 0 00-.22-.53.747.747 0 00-.53-.22zM302.77 448.092a7.144 7.144 0 00-5.052 12.198 7.144 7.144 0 1010.103-10.103 7.152 7.152 0 00-5.051-2.095zm0 12.791a5.647 5.647 0 110-11.293 5.647 5.647 0 010 11.293zM271.454 440.511a.752.752 0 00-1.012.319 29.09 29.09 0 00-.32.637.747.747 0 00.109.831.742.742 0 00.519.253.759.759 0 00.721-.427c.098-.204.2-.406.302-.601a.749.749 0 00-.319-1.012zM270.031 443.493a.748.748 0 00-.967.437 32.57 32.57 0 00-1.968 8.705.756.756 0 00.405.729.755.755 0 00.852-.117.747.747 0 00.239-.49 30.992 30.992 0 011.876-8.298.751.751 0 00-.437-.966z" fill="#fff" fill-opacity=".1"/><path d="M317.859 447.024c-.879-3.913-2.432-7.543-4.393-10.251-2.284-3.155-4.929-4.822-7.65-4.822-2.518 0-4.967 1.425-7.127 4.135a16.38 16.38 0 00-.709-.833c-1.979-2.16-4.198-3.302-6.417-3.302-2.53 0-4.99 1.443-7.13 4.13-2.158-2.707-4.606-4.131-7.123-4.131-3.388 0-6.651 2.588-9.187 7.288-2.269 4.203-3.623 9.592-3.623 14.416 0 4.727 1.261 8.404 3.748 10.931 2.23 2.265 5.364 3.462 9.062 3.462 2.7 0 5.152-.658 7.128-1.905 1.978 1.251 4.397 1.905 7.125 1.905a14.423 14.423 0 004.631-.723c1.66.482 3.528.723 5.603.724 4.823 0 10.212-1.354 14.415-3.622 4.7-2.537 7.288-5.8 7.288-9.188 0-2.97-1.988-5.843-5.641-8.214zm-12.042-13.574c1.547 0 3.92.729 6.434 4.202 1.613 2.227 2.935 5.133 3.8 8.312-4.058-2.152-9.184-3.459-13.837-3.533a25.937 25.937 0 00-2.602-5.087c2.424-3.203 4.698-3.894 6.205-3.894zm-28.507 33.098c-3.287 0-6.051-1.043-7.993-3.016-2.201-2.235-3.317-5.559-3.317-9.878 0-4.587 1.287-9.709 3.442-13.704 2.23-4.131 5.097-6.5 7.868-6.5 1.507 0 3.781.691 6.205 3.893a23.92 23.92 0 00-1.14 1.895c-2.268 4.203-3.622 9.592-3.622 14.416 0 4.727 1.261 8.404 3.748 10.931.202.205.413.398.63.585-1.645.903-3.634 1.378-5.821 1.378zm14.253 0c-3.287 0-6.051-1.043-7.993-3.016-2.201-2.235-3.317-5.559-3.317-9.878 0-4.587 1.287-9.709 3.442-13.704 2.23-4.131 5.098-6.5 7.868-6.5 3.359 0 6.77 3.423 9.048 9.005-4.16.197-7.435 1.445-9.745 3.72-2.266 2.231-3.464 5.364-3.464 9.063 0 3.698 1.198 6.831 3.464 9.062.856.839 1.838 1.54 2.909 2.078-.732.114-1.471.171-2.212.17zm23.937-3.443c-3.994 2.156-9.117 3.443-13.703 3.443-4.32 0-7.643-1.116-9.879-3.317-1.973-1.942-3.015-4.707-3.015-7.994s1.042-6.051 3.015-7.993c2.236-2.201 5.559-3.317 9.879-3.317 4.586 0 9.709 1.287 13.703 3.442 4.131 2.23 6.5 5.097 6.5 7.868s-2.369 5.639-6.5 7.868zM870 474.594a4 4 0 004-3.963v-25.513a4 4 0 10-8 0v25.513a4 4 0 004 3.963zm-2.5-5.095h2a.75.75 0 100-1.5h-2v-2h1.25a.75.75 0 100-1.5h-1.25v-2.125h2a.75.75 0 100-1.5h-2v-2.125h1.25a.75.75 0 100-1.5h-1.25v-2.125h2a.75.75 0 100-1.5h-2v-2h1.25a.75.75 0 100-1.5h-1.25v-2.125h2a.75.75 0 100-1.5h-2v-1.381a2.5 2.5 0 115 0v25.513a2.501 2.501 0 01-5 0v-1.132z" fill="#fff" fill-opacity=".1"/><path d="M884.514 430.875h-3.266v-5.057a5.35 5.35 0 00-5.35-5.318h-7.962a5.353 5.353 0 00-5.261 4.5h-4.296a1.546 1.546 0 00-1.506 1.542v4.333h-1.39a3.182 3.182 0 00-.481 6.329l2.739 39.272c.059.82.426 1.587 1.028 2.148.601.56 1.392.873 2.214.876h18.031a3.256 3.256 0 003.242-3.024l2.739-39.271a3.185 3.185 0 002.691-3.388 3.181 3.181 0 00-3.172-2.942zM867.936 422h7.962a3.851 3.851 0 013.85 3.818v5.057h-9.875v-4.333a1.56 1.56 0 00-1.526-1.542h-4.151a3.771 3.771 0 013.74-3zm-9.563 4.5h10v4.375h-10V426.5zm22.387 49.876a1.75 1.75 0 01-1.746 1.624h-18.031a1.752 1.752 0 01-1.746-1.624l-2.729-39.126h26.981l-2.729 39.126zm3.754-40.626h-29.031c-.448 0-.877-.178-1.194-.494a1.691 1.691 0 010-2.387 1.691 1.691 0 011.194-.494h29.031a1.69 1.69 0 011.194 2.881 1.691 1.691 0 01-1.194.494z" fill="#fff" fill-opacity=".1"/><path d="M858.773 441.989a.752.752 0 00.749.716l.035-.001a.748.748 0 00.715-.783l-.036-.786a.754.754 0 00-.784-.715.749.749 0 00-.715.783l.036.786zM859.597 443.579a.742.742 0 00-.671.494.732.732 0 00-.044.289l.377 8.242a.751.751 0 00.749.715h.035a.761.761 0 00.671-.495.748.748 0 00.044-.289l-.378-8.241a.75.75 0 00-.783-.715zM499.238 183.751h3.142a.757.757 0 00.529-.222.74.74 0 00.216-.531v-3.829a.747.747 0 00-.22-.53.747.747 0 00-1.06 0 .747.747 0 00-.22.53v3.082h-2.387a.752.752 0 00-.75.75.749.749 0 00.75.75z" fill="#fff" fill-opacity=".1"/><path d="M502.391 190.344a8.21 8.21 0 10-8.209-8.21 8.22 8.22 0 008.209 8.21zm-6.67-8.929a6.676 6.676 0 011.421-3.453.743.743 0 001.002-.051.742.742 0 00.045-1.002 6.676 6.676 0 013.409-1.436.749.749 0 001.494-.011 6.673 6.673 0 013.473 1.425.747.747 0 001.057 1.052 6.681 6.681 0 011.439 3.474.744.744 0 00-.719.745.751.751 0 00.712.751 6.674 6.674 0 01-1.436 3.425.745.745 0 00-1.057 1.051 6.684 6.684 0 01-3.469 1.422.75.75 0 00-1.494-.012 6.682 6.682 0 01-3.405-1.432.747.747 0 00-1.047-1.052 6.68 6.68 0 01-1.419-3.405.751.751 0 00.471-1.248.754.754 0 00-.477-.243z" fill="#fff" fill-opacity=".1"/><path d="M502.391 192.509a10.376 10.376 0 003.579-20.113l-3.001-3.787a.746.746 0 00-.914-.209.737.737 0 00-.261.209l-3.011 3.798a10.376 10.376 0 003.608 20.102zm-.01-22.227l1.229 1.55a10.124 10.124 0 00-2.46.003l1.231-1.553zm.01 2.977c1.755 0 3.471.52 4.931 1.495a8.88 8.88 0 013.773 9.111 8.869 8.869 0 01-6.973 6.973 8.871 8.871 0 01-8.004-14.977 8.882 8.882 0 016.273-2.602zM515.25 201.511v-3.049a2.934 2.934 0 00-.849-2.088 2.944 2.944 0 00-2.077-.874h-40.091a2.962 2.962 0 00-2.409-1.25h-12.349a1.49 1.49 0 00-1.475 1.511v12.412a1.448 1.448 0 00.43 1.039 1.438 1.438 0 001.045.413h1.15v9.301a.676.676 0 00.439.656.667.667 0 00.276.043h4.034c.414 0 .751-.285.751-.699v-9.301h44.25v9.301a.677.677 0 00.428.655c.087.034.18.049.273.044h4.034c.414 0 .765-.285.765-.699v-9.301h.65a1.438 1.438 0 001.475-1.451v-5.913c0-.415-.25-.75-.75-.75zm-42.5-4.299c.011-.07.017-.141.018-.212h39.556a1.437 1.437 0 011.324.907c.07.177.105.365.102.555v3.038h-41v-4.288zm-15.25-1.462h12.324a1.437 1.437 0 011.324.907c.07.177.105.365.102.555v4.288H457.5v-5.75zm5.125 22.375h-2.5v-8.5h2.5v8.5zm49.75 0h-2.5v-8.5h2.5v8.5zm2.125-10h-57V203h57v5.125z" fill="#fff" fill-opacity=".1"/><path d="M459.168 205.875h.787a.749.749 0 00.53-1.28.749.749 0 00-.53-.22h-.787a.747.747 0 00-.53.22.747.747 0 000 1.06c.14.141.331.22.53.22zM462.332 205.875h8.25c.199 0 .39-.079.53-.22a.747.747 0 000-1.06.747.747 0 00-.53-.22h-8.25a.747.747 0 00-.53.22.747.747 0 000 1.06c.14.141.331.22.53.22zM706.75 164.5h-10.485a.757.757 0 00-.589.286.747.747 0 00-.14.64 2.808 2.808 0 01-1.5 3.183 2.798 2.798 0 01-2.451 0 2.8 2.8 0 01-1.515-1.926 2.808 2.808 0 01.015-1.257.747.747 0 00-.729-.926h-31.812a.79.79 0 00-.794.75v7.5h-7.5a.79.79 0 00-.75.794v49.206c0 .199.079.39.22.53.14.141.331.22.53.22h6.41a.746.746 0 00.599-.299.753.753 0 00.121-.658 4.557 4.557 0 01.737-3.992 4.547 4.547 0 018.003 3.992.755.755 0 00.122.658.74.74 0 00.599.299h32.615a.79.79 0 00.794-.75v-6.625h7.5a.736.736 0 00.283-.044.733.733 0 00.407-.386.716.716 0 00.06-.281v-18.519a.75.75 0 00-.957-.721 4.544 4.544 0 01-5.326-2.34 4.537 4.537 0 010-4.059 4.538 4.538 0 013.243-2.442 4.544 4.544 0 012.083.102.741.741 0 00.658-.122.75.75 0 00.299-.599V165.25a.747.747 0 00-.22-.53.747.747 0 00-.53-.22zm-9 57.5h-30.995a6.042 6.042 0 00-1.483-4.731 6.041 6.041 0 00-4.522-2.032 6.04 6.04 0 00-4.522 2.032 6.04 6.04 0 00-1.482 4.731H650v-47.75h17.251l-.002.178a4.802 4.802 0 00.358 1.841 4.803 4.803 0 002.597 2.607 4.798 4.798 0 005.236-1.048 4.791 4.791 0 001.393-3.405l-.002-.173h20.919v33.045c-.125 0-.079-.001-.108-.001a4.303 4.303 0 00-3.039 7.35 4.3 4.3 0 003.044 1.259l.103-.001V222zm7.536-24.148c.239-.001.477-.015.714-.043v16.816h-6.902a.787.787 0 00-.466-.305.77.77 0 00-.341.004 2.804 2.804 0 11-.01-5.451.792.792 0 00.882-.4.771.771 0 00.087-.329v-15.993a6.051 6.051 0 006.036 5.701zM706 185.8a6.055 6.055 0 00-6.118 3.291 6.048 6.048 0 00-.632 2.367v-17.914a.826.826 0 00-.794-.794H675.98a.792.792 0 00-.587.305.79.79 0 00-.144.645 3.328 3.328 0 01-.2 2.092 3.298 3.298 0 01-2.006 1.798 3.3 3.3 0 01-2.678-.302 3.287 3.287 0 01-1.532-3.578.783.783 0 00-.144-.656.767.767 0 00-.587-.304h-9.852V166h30.257l-.001.086a4.305 4.305 0 008.609 0l-.001-.086H706v19.8z" fill="#fff" fill-opacity=".1"/><path d="M659.7 184.153a4.294 4.294 0 00-3.971 2.653 4.302 4.302 0 00.932 4.684 4.299 4.299 0 007.337-3.039 4.302 4.302 0 00-4.298-4.298zm0 7.096a2.799 2.799 0 110-5.599 2.799 2.799 0 010 5.599zM678.961 206.5a4.705 4.705 0 00-4.343 2.902 4.706 4.706 0 001.019 5.124 4.702 4.702 0 008.026-3.324 4.706 4.706 0 00-4.702-4.702zm0 7.903a3.197 3.197 0 01-1.778-.54 3.198 3.198 0 01-.486-4.925 3.199 3.199 0 013.489-.694 3.198 3.198 0 011.038 5.22c-.6.6-1.414.938-2.263.939zM688.738 185.688a4.739 4.739 0 00-4.377 2.924 4.732 4.732 0 001.027 5.163 4.74 4.74 0 008.087-3.35 4.745 4.745 0 00-4.737-4.737zm0 7.975a3.241 3.241 0 01-2.992-1.998 3.239 3.239 0 014.23-4.23 3.233 3.233 0 011.999 2.991 3.241 3.241 0 01-3.237 3.238v-.001zM652.625 177.045a.747.747 0 00-.53.22.747.747 0 00-.22.53v.787a.75.75 0 001.5 0v-.787a.747.747 0 00-.22-.53.747.747 0 00-.53-.22zM652.625 180.205a.747.747 0 00-.53.22.747.747 0 00-.22.53v8.25a.742.742 0 00.22.53.742.742 0 00.817.163.742.742 0 00.406-.406.742.742 0 00.057-.287v-8.25a.747.747 0 00-.22-.53.747.747 0 00-.53-.22zM870 218.594a4 4 0 004-3.963v-25.513a4 4 0 10-8 0v25.513a4 4 0 004 3.963zm-2.5-5.095h2a.75.75 0 100-1.5h-2v-2h1.25a.75.75 0 100-1.5h-1.25v-2.125h2a.75.75 0 100-1.5h-2v-2.125h1.25a.75.75 0 100-1.5h-1.25v-2.125h2a.75.75 0 100-1.5h-2v-2h1.25a.75.75 0 100-1.5h-1.25v-2.125h2a.75.75 0 100-1.5h-2v-1.381a2.5 2.5 0 115 0v25.513a2.501 2.501 0 01-5 0v-1.132z" fill="#fff" fill-opacity=".1"/><path d="M884.514 174.875h-3.266v-5.057a5.35 5.35 0 00-5.35-5.318h-7.962a5.353 5.353 0 00-5.261 4.5h-4.296a1.546 1.546 0 00-1.506 1.542v4.333h-1.39a3.182 3.182 0 00-.481 6.329l2.739 39.272c.059.82.426 1.587 1.028 2.148.601.56 1.392.873 2.214.876h18.031a3.256 3.256 0 003.242-3.024l2.739-39.271a3.185 3.185 0 002.691-3.388 3.181 3.181 0 00-3.172-2.942zM867.936 166h7.962a3.851 3.851 0 013.85 3.818v5.057h-9.875v-4.333a1.56 1.56 0 00-1.526-1.542h-4.151a3.771 3.771 0 013.74-3zm-9.563 4.5h10v4.375h-10V170.5zm22.387 49.876a1.75 1.75 0 01-1.746 1.624h-18.031a1.752 1.752 0 01-1.746-1.624l-2.729-39.126h26.981l-2.729 39.126zm3.754-40.626h-29.031c-.448 0-.877-.178-1.194-.494a1.691 1.691 0 010-2.387 1.691 1.691 0 011.194-.494h29.031a1.69 1.69 0 011.194 2.881 1.691 1.691 0 01-1.194.494z" fill="#fff" fill-opacity=".1"/><path d="M858.773 185.989a.752.752 0 00.749.716l.035-.001a.748.748 0 00.715-.783l-.036-.786a.754.754 0 00-.784-.715.749.749 0 00-.715.783l.036.786zM859.597 187.579a.742.742 0 00-.671.494.732.732 0 00-.044.289l.377 8.242a.751.751 0 00.749.715h.035a.761.761 0 00.671-.495.748.748 0 00.044-.289l-.378-8.241a.75.75 0 00-.783-.715zM695.693 689.686c-3.477-2.063-7.848-1.983-11.409.209a9.055 9.055 0 01-1.771.839l-.419-11.335a.75.75 0 00-1.041-.664l-3.097 1.305a.749.749 0 00-.458.66l-.169 4.086a22.376 22.376 0 00-2.269-.439 4.524 4.524 0 00-.293-.853c-.913-1.979-2.616-3.782-3.475-4.454-3.199-2.5-6.418-3.162-9.568-1.969-6.747 2.557-10.991 12.861-12.082 18.754a1.267 1.267 0 00.703 1.371c.167.079.35.12.535.12.271-.001.536-.088.754-.249 1.367-1.023 3.5-2.152 6.582-2.621-3.279 3.873-5.001 8.784-5.001 14.326 0 4.744 1.236 9.659 3.575 14.215 2.323 4.526 5.577 8.395 9.409 11.187a6.02 6.02 0 006.975.037 11.17 11.17 0 016.477-1.988c2.312.025 4.56.767 6.433 2.124a6.019 6.019 0 003.542 1.153 5.945 5.945 0 003.436-1.089c3.92-2.768 7.255-6.654 9.644-11.237 2.403-4.608 3.672-9.588 3.672-14.401 0-8.22-3.795-14.998-10.685-19.087zm-16.716-8.448l1.658-.699.391 10.573c-.812.136-1.64.16-2.459.072l.41-9.946zm-4.091 5.771c.138-.363.228-.742.269-1.127.711.108 1.416.256 2.111.44l-.189 4.575a9.032 9.032 0 01-2.233-.967c-.373-.226-.76-.429-1.158-.607.486-.724.888-1.501 1.2-2.315v.001zm-23.652 8.502c1.262-5.996 5.366-14.894 11.021-17.038.8-.308 1.65-.467 2.508-.469 1.838 0 3.715.741 5.605 2.218.632.494 2.206 2.097 3.037 3.9l.02.046a26.418 26.418 0 00-2.684-.073c-4.034.093-10.075 1.187-15.957 5.864a.754.754 0 00.101 1.246.753.753 0 00.833-.072c5.533-4.4 11.208-5.44 14.995-5.537.986-.025 1.972.008 2.954.1a3.018 3.018 0 01-.182.778c-.916 2.404-3.41 6.312-9.929 6.311-.301 0-.61-.008-.929-.025-5.529-.298-9.192 1.255-11.393 2.751zm53.644 13.261c0 4.573-1.211 9.313-3.502 13.708-2.279 4.372-5.453 8.074-9.179 10.705a4.489 4.489 0 01-5.232-.052 12.665 12.665 0 00-14.646-.154 4.522 4.522 0 01-5.237-.017c-3.643-2.655-6.741-6.341-8.958-10.66-2.23-4.345-3.409-9.023-3.409-13.53 0-5.759 1.98-10.777 5.729-14.533a22.866 22.866 0 012.101.019c5.211.282 8.344-1.644 10.191-3.711.461.186.906.408 1.331.666a10.585 10.585 0 0011.003-.04c3.085-1.899 6.862-1.975 9.857-.197 3.109 1.845 5.546 4.26 7.243 7.18 1.797 3.091 2.708 6.662 2.708 10.616z" fill="#fff" fill-opacity=".1"/><path d="M657.719 708.774a19.514 19.514 0 01.808-5.707.747.747 0 00-.497-.936.75.75 0 00-.937.497 20.997 20.997 0 00-.874 6.146c0 3.243.681 6.697 1.97 9.989a.749.749 0 101.397-.547c-1.221-3.119-1.867-6.384-1.867-9.442zM659.647 698.778a.748.748 0 00-1.023.28c-.143.25-.281.508-.411.765a.756.756 0 00.096.833.75.75 0 001.243-.157c.119-.235.245-.47.375-.698a.756.756 0 00.072-.57.755.755 0 00-.352-.453zM307.238 695.752h3.142a.757.757 0 00.529-.222.74.74 0 00.216-.531v-3.829a.747.747 0 00-.22-.53.747.747 0 00-1.06 0 .747.747 0 00-.22.53v3.082h-2.387a.752.752 0 00-.75.75.749.749 0 00.75.75z" fill="#fff" fill-opacity=".1"/><path d="M310.391 702.345a8.21 8.21 0 10-8.209-8.21 8.22 8.22 0 008.209 8.21zm-6.67-8.929a6.676 6.676 0 011.421-3.453.743.743 0 001.002-.051.742.742 0 00.045-1.002 6.676 6.676 0 013.409-1.436.749.749 0 001.494-.011 6.673 6.673 0 013.473 1.425.747.747 0 001.057 1.052 6.681 6.681 0 011.439 3.474.744.744 0 00-.719.745.751.751 0 00.712.751 6.674 6.674 0 01-1.436 3.425.745.745 0 00-1.057 1.051 6.684 6.684 0 01-3.469 1.422.75.75 0 00-1.494-.012 6.682 6.682 0 01-3.405-1.432.747.747 0 00-1.047-1.052 6.68 6.68 0 01-1.419-3.405.751.751 0 00.471-1.248.754.754 0 00-.477-.243z" fill="#fff" fill-opacity=".1"/><path d="M310.391 704.51a10.376 10.376 0 003.579-20.113l-3.001-3.787a.746.746 0 00-.914-.209.737.737 0 00-.261.209l-3.011 3.798a10.376 10.376 0 003.608 20.102zm-.01-22.227l1.229 1.55a10.124 10.124 0 00-2.46.003l1.231-1.553zm.01 2.977c1.755 0 3.471.52 4.931 1.495a8.88 8.88 0 013.773 9.111 8.869 8.869 0 01-6.973 6.973 8.871 8.871 0 01-8.004-14.977 8.882 8.882 0 016.273-2.602zM323.25 713.512v-3.049a2.934 2.934 0 00-.849-2.088 2.948 2.948 0 00-2.077-.874h-40.091a2.962 2.962 0 00-2.409-1.25h-12.349a1.49 1.49 0 00-1.475 1.511v12.412a1.448 1.448 0 00.43 1.039 1.438 1.438 0 001.045.413h1.15v9.301a.676.676 0 00.439.656.683.683 0 00.276.043h4.034c.414 0 .751-.285.751-.699v-9.301h44.25v9.301a.677.677 0 00.428.655c.087.034.18.049.273.044h4.034c.414 0 .765-.285.765-.699v-9.301h.65a1.438 1.438 0 001.475-1.451v-5.913c0-.415-.25-.75-.75-.75zm-42.5-4.299c.011-.07.017-.141.018-.212h39.556a1.437 1.437 0 011.324.907c.07.176.105.365.102.555v3.038h-41v-4.288zm-15.25-1.462h12.324a1.437 1.437 0 011.324.907c.07.176.105.365.102.555v4.288H265.5v-5.75zm5.125 22.375h-2.5v-8.5h2.5v8.5zm49.75 0h-2.5v-8.5h2.5v8.5zm2.125-10h-57v-5.125h57v5.125z" fill="#fff" fill-opacity=".1"/><path d="M267.168 717.876h.787a.749.749 0 00.53-1.28.749.749 0 00-.53-.22h-.787a.747.747 0 00-.53.22.747.747 0 000 1.06c.14.141.331.22.53.22zM270.332 717.876h8.25c.199 0 .39-.079.53-.22a.747.747 0 000-1.06.747.747 0 00-.53-.22h-8.25a.747.747 0 00-.53.22.747.747 0 000 1.06c.14.141.331.22.53.22zM898.75 676.501h-10.485a.757.757 0 00-.589.286.747.747 0 00-.14.64 2.808 2.808 0 01-1.5 3.183 2.798 2.798 0 01-2.451 0 2.8 2.8 0 01-1.515-1.926 2.808 2.808 0 01.015-1.257.747.747 0 00-.729-.926h-31.812a.79.79 0 00-.794.75v7.5h-7.5a.79.79 0 00-.75.794v49.206c0 .199.079.39.22.53.14.141.331.22.53.22h6.41a.746.746 0 00.599-.299.753.753 0 00.121-.658 4.557 4.557 0 01.737-3.992 4.547 4.547 0 018.003 3.992.755.755 0 00.122.658.74.74 0 00.599.299h32.615a.79.79 0 00.794-.75v-6.625h7.5a.736.736 0 00.283-.044.733.733 0 00.407-.386.716.716 0 00.06-.281v-18.519a.75.75 0 00-.957-.721 4.544 4.544 0 01-5.326-2.34 4.537 4.537 0 010-4.059 4.538 4.538 0 013.243-2.442 4.544 4.544 0 012.083.102.741.741 0 00.658-.122.75.75 0 00.299-.599v-21.464a.747.747 0 00-.22-.53.747.747 0 00-.53-.22zm-9 57.5h-30.995a6.04 6.04 0 00-6.005-6.763 6.04 6.04 0 00-4.522 2.032 6.04 6.04 0 00-1.482 4.731H842v-47.75h17.251l-.002.178a4.802 4.802 0 00.358 1.841 4.803 4.803 0 002.597 2.607 4.798 4.798 0 005.236-1.048 4.791 4.791 0 001.393-3.405l-.002-.173h20.919v33.045c-.125 0-.079-.001-.108-.001a4.303 4.303 0 00-3.039 7.35 4.3 4.3 0 003.044 1.259l.103-.001v6.098zm7.536-24.149c.239 0 .477-.014.714-.042v16.816h-6.902a.787.787 0 00-.466-.305.77.77 0 00-.341.004 2.804 2.804 0 11-.01-5.451.792.792 0 00.882-.4.771.771 0 00.087-.329v-15.993a6.051 6.051 0 006.036 5.7zm.714-12.051a6.05 6.05 0 00-4.598 1.37 6.048 6.048 0 00-2.152 4.288v-17.914a.822.822 0 00-.242-.552.822.822 0 00-.552-.242H867.98a.792.792 0 00-.587.305.79.79 0 00-.144.645 3.328 3.328 0 01-.2 2.092 3.298 3.298 0 01-2.006 1.798 3.3 3.3 0 01-2.678-.302 3.287 3.287 0 01-1.532-3.578.783.783 0 00-.144-.656.767.767 0 00-.587-.304h-9.852v-6.75h30.257l-.001.086a4.305 4.305 0 008.609 0l-.001-.086H898v19.8z" fill="#fff" fill-opacity=".1"/><path d="M851.7 696.154a4.294 4.294 0 00-3.971 2.653 4.3 4.3 0 007.545 4.033 4.301 4.301 0 00.724-2.388 4.302 4.302 0 00-4.298-4.298zm0 7.096a2.799 2.799 0 110-5.599 2.799 2.799 0 010 5.599zM870.961 718.501a4.705 4.705 0 00-4.343 2.902 4.706 4.706 0 001.019 5.124 4.702 4.702 0 008.026-3.325 4.705 4.705 0 00-4.702-4.701zm0 7.903a3.197 3.197 0 01-1.778-.54 3.198 3.198 0 01-.486-4.925 3.198 3.198 0 014.926.485 3.197 3.197 0 01-.399 4.041c-.6.6-1.414.938-2.263.939zM880.738 697.688a4.74 4.74 0 00-4.647 5.662 4.74 4.74 0 008.586 1.708c.52-.779.798-1.695.798-2.632a4.745 4.745 0 00-4.737-4.738zm0 7.976a3.241 3.241 0 01-2.992-1.998 3.239 3.239 0 014.23-4.23 3.233 3.233 0 011.999 2.991 3.241 3.241 0 01-3.237 3.238v-.001zM844.625 689.046a.747.747 0 00-.53.22.747.747 0 00-.22.53v.787a.75.75 0 001.5 0v-.787a.747.747 0 00-.22-.53.747.747 0 00-.53-.22zM844.625 692.206a.747.747 0 00-.53.22.747.747 0 00-.22.53v8.25a.742.742 0 00.22.53.742.742 0 00.817.163.742.742 0 00.406-.406.742.742 0 00.057-.287v-8.25a.747.747 0 00-.22-.53.747.747 0 00-.53-.22zM513.245 693.627h-.745v-2.971a2.273 2.273 0 00-2.249-2.279h-1.712c-.27.01-.536.063-.789.157v-1.909a2.227 2.227 0 00-1.364-2.076 2.225 2.225 0 00-.856-.172h-1.712c-1.243 0-2.193 1.005-2.193 2.248v6.877H482.75v-6.877a2.2 2.2 0 00-.158-.856 2.215 2.215 0 00-2.05-1.392h-1.713a2.23 2.23 0 00-.853.173 2.229 2.229 0 00-1.195 1.219 2.217 2.217 0 00-.156.856v1.909a2.632 2.632 0 00-.805-.157h-1.711a2.26 2.26 0 00-2.234 2.279v2.971h-.76a2.22 2.22 0 00-1.583.636 2.209 2.209 0 00-.657 1.575v2.057a2.214 2.214 0 001.382 2.066c.272.112.564.168.858.166h.76v2.95c0 1.243.99 2.3 2.234 2.3h1.711c.276-.017.548-.077.805-.178v1.908c0 1.244.962 2.27 2.205 2.27h1.712a2.23 2.23 0 002.208-2.27v-6.855h18.875v6.855c0 1.244.95 2.27 2.193 2.27h1.712a2.245 2.245 0 002.22-2.27v-1.871c.216.074.44.121.667.141h1.957c1.175 0 2.126-1.002 2.126-2.177v-3.073h.745a2.242 2.242 0 002.081-1.373c.114-.272.173-.564.174-.859v-2.057a2.22 2.22 0 00-2.255-2.211zm-41.37 5h-.76a.722.722 0 01-.74-.732v-2.057a.71.71 0 01.458-.667.713.713 0 01.282-.044h.76v3.5zm4.75 4.37a.756.756 0 01-.755.755h-1.74a.753.753 0 01-.698-.466.775.775 0 01-.057-.289v-12.365a.753.753 0 01.755-.755h1.74a.752.752 0 01.755.755v12.365zm4.625 4.11c0 .417-.292.77-.708.77h-1.713c-.416 0-.704-.368-.704-.784v-20.468a.693.693 0 01.191-.525.708.708 0 01.514-.223h1.712a.708.708 0 01.708.748v20.482zm20.375-8.355H482.75v-3.75h18.875v3.75zm4.625 8.355a.744.744 0 01-.436.705.75.75 0 01-.284.065h-1.712c-.416 0-.693-.353-.693-.77v-20.482c0-.416.277-.748.693-.748h1.712a.719.719 0 01.673.464.71.71 0 01.047.284v20.482zM511 703.2a.668.668 0 01-.626.677h-1.957a.703.703 0 01-.667-.677v-12.544a.807.807 0 01.789-.779h1.713a.77.77 0 01.748.779V703.2zm3-5.305a.73.73 0 01-.755.732h-.745v-3.5h.745a.72.72 0 01.755.711v2.057z" fill="#fff" fill-opacity=".1"/><path d="M500.886 711.877h-.761v-2.95c0-1.243-.99-2.3-2.234-2.3h-1.711a2.647 2.647 0 00-.805.178v-1.909c0-1.243-.961-2.269-2.205-2.269h-1.712a2.23 2.23 0 00-2.208 2.269v6.856h-18.875v-6.856c0-1.243-.95-2.269-2.193-2.269h-1.712a2.245 2.245 0 00-2.22 2.269v1.909a2.555 2.555 0 00-.789-.178h-1.713c-1.243 0-2.248 1.057-2.248 2.3v2.95h-.745a2.242 2.242 0 00-2.081 1.373 2.242 2.242 0 00-.174.859v2.057a2.223 2.223 0 002.255 2.211h.745v2.971a2.273 2.273 0 002.249 2.279h1.712c.27-.01.536-.063.789-.157v1.908a2.228 2.228 0 00.641 1.588 2.228 2.228 0 001.579.661h1.712c1.243 0 2.193-1.005 2.193-2.249v-6.876h18.875v6.876a2.202 2.202 0 00.634 1.587 2.215 2.215 0 001.574.662h1.713a2.23 2.23 0 00.853-.173 2.229 2.229 0 001.195-1.219c.108-.273.161-.564.156-.857v-1.871c.222.068.45.108.682.12h1.957a2.138 2.138 0 002.111-2.156v-3.094h.761a2.218 2.218 0 001.582-.636 2.202 2.202 0 00.657-1.575v-2.057a2.214 2.214 0 00-1.382-2.066 2.213 2.213 0 00-.857-.166zm-41.386 5h-.745a.702.702 0 01-.284-.044.707.707 0 01-.411-.386.73.73 0 01-.06-.281v-2.057a.73.73 0 01.755-.732h.745v3.5zm4.75 4.37a.756.756 0 01-.755.755h-1.74a.753.753 0 01-.698-.466.756.756 0 01-.057-.289v-12.365a.752.752 0 01.755-.755h1.74a.752.752 0 01.755.755v12.365zm4.625 4.131c0 .417-.277.749-.693.749h-1.712a.719.719 0 01-.673-.464.712.712 0 01-.047-.285v-20.482a.74.74 0 01.72-.769h1.712c.416 0 .693.353.693.769v20.482zm20.375-8.376h-18.875v-3.75h18.875v3.75zm4.625 8.376a.716.716 0 01-.192.526.704.704 0 01-.513.223h-1.712a.724.724 0 01-.514-.223.714.714 0 01-.194-.526v-20.482c0-.416.292-.769.708-.769h1.713c.416 0 .704.353.704.769v20.482zm4.75-3.907a.64.64 0 01-.611.656h-1.957a.695.695 0 01-.682-.656v-12.544a.844.844 0 01.805-.8h1.711c.417 0 .734.384.734.8v12.544zm3-5.305a.71.71 0 01-.458.667.73.73 0 01-.281.044h-.761v-3.5h.761a.72.72 0 01.739.732v2.057z" fill="#fff" fill-opacity=".1"/><path d="M471.795 715.502h.787a.75.75 0 000-1.5h-.787a.747.747 0 00-.53.22.747.747 0 000 1.06c.14.141.331.22.53.22zM474.957 715.502h8.25c.199 0 .39-.079.53-.22a.747.747 0 000-1.06.747.747 0 00-.53-.22h-8.25a.747.747 0 00-.53.22.747.747 0 000 1.06c.14.141.331.22.53.22zM77.615 689.001H77.5a.749.749 0 00-.53 1.28c.14.141.331.22.53.22h.115a.749.749 0 00.53-1.28.749.749 0 00-.53-.22zM80.485 689.751a.748.748 0 00-.75-.75h-.075a.749.749 0 100 1.5h.075a.749.749 0 00.75-.75zM82.662 690.501h.035a.749.749 0 00.53-1.28.749.749 0 00-.53-.22h-.035a.749.749 0 00-.53 1.28c.14.141.331.22.53.22zM126.499 689.001h-.114a.75.75 0 000 1.5h.114a.75.75 0 000-1.5zM124.341 689.001h-.075a.75.75 0 000 1.5h.075a.749.749 0 00.53-1.28.749.749 0 00-.53-.22zM121.303 690.501h.035a.749.749 0 00.53-1.28.749.749 0 00-.53-.22h-.035a.75.75 0 000 1.5zM102.002 691.29a2.244 2.244 0 001.602-.702 2.067 2.067 0 00.595-1.529 2.191 2.191 0 00-3.8-1.463 2.076 2.076 0 00-.595 1.529 2.226 2.226 0 002.198 2.165zm-.519-2.657a.754.754 0 01.519-.239c.432 0 .682.377.698.732a.588.588 0 01-.18.425.753.753 0 01-.518.238c-.433 0-.683-.376-.699-.731a.594.594 0 01.18-.425z" fill="#fff" fill-opacity=".1"/><path d="M116.716 690.501h1.714a.75.75 0 000-1.5h-2.07c-.496-2.771-.19-5.862.909-9.406.205-.685.465-1.353.776-1.997a.758.758 0 00.085-.371.751.751 0 00-.75-.726H86.618a.752.752 0 00-.75.725.748.748 0 00.084.371c.311.644.571 1.313.777 1.998 1.098 3.545 1.404 6.635.908 9.406h-2.07a.749.749 0 00-.53 1.28c.14.141.331.22.53.22h1.714a14.056 14.056 0 01-2.088 4.202c-3.284 4.574-4.952 7.9-4.957 13.385-.004 5.228 1.45 12.253 4.091 25.004l.341 1.666a.77.77 0 00.734.618h33.194a.766.766 0 00.734-.618l.341-1.656c2.64-12.751 4.095-19.781 4.09-25.009-.004-5.485-1.673-8.814-4.957-13.388a14.075 14.075 0 01-2.088-4.204zm-30.305 5.076a15.511 15.511 0 002.439-5.076h2.739l-1.313 1.341a.77.77 0 000 1.075.752.752 0 00.817.173.733.733 0 00.244-.162l2.593-2.59a.743.743 0 00.162-.816.743.743 0 00-.162-.243l-2.593-2.592a.752.752 0 00-1.28.516.717.717 0 00.22.515l1.311 1.283H89.17c.472-2.929.133-6.168-1.008-9.85a17.596 17.596 0 00-.4-1.15h28.474c-.125.322-.262.709-.4 1.15-1.141 3.681-1.48 6.921-1.008 9.85h-2.419l1.313-1.283a.726.726 0 00.163-.806.755.755 0 00-.695-.456.753.753 0 00-.529.224l-2.593 2.596a.754.754 0 000 1.062l2.593 2.594a.75.75 0 001.061 0 .784.784 0 000-1.09l-1.313-1.341h2.739a15.514 15.514 0 002.438 5.076c.42.585.809 1.145 1.169 1.688l-2.883.577a70.386 70.386 0 01-27.746 0l-2.883-.577c.36-.543.749-1.103 1.168-1.688zm14.838 38.299H86.013l-.217-1.068c-2.235-10.788-3.628-17.53-3.972-22.42 7.017.434 14.898 3.997 16.29 10.053a3.882 3.882 0 003.135 2.927v10.508zm16.953-1.068l-.217 1.068h-15.236v-10.544a3.833 3.833 0 002.931-2.894c.833-3.664 3.944-6.002 6.408-7.318 2.918-1.559 6.553-2.54 10.088-2.756-.341 4.891-1.736 11.637-3.974 22.444zm4.047-23.961c-3.796.208-7.721 1.269-10.868 2.95-3.928 2.098-6.405 4.971-7.164 8.308a2.388 2.388 0 01-4.641-.005c-.766-3.333-3.21-6.197-7.066-8.283-3.102-1.678-6.988-2.737-10.76-2.945-.07-2.706.243-4.837.987-6.869l3.8.76a78.706 78.706 0 0015.462 1.539 78.703 78.703 0 0015.462-1.539l3.8-.76c.741 2.025 1.055 4.149.988 6.844zm-1.579-8.256l-3.503.702a76.989 76.989 0 01-30.336 0l-3.503-.702c.305-.65.657-1.3 1.056-1.968l3.447.689A72.166 72.166 0 00102 700.723a72.16 72.16 0 0014.167-1.411l3.447-.689a22.81 22.81 0 011.057 1.968z" fill="#fff" fill-opacity=".1"/><path d="M86.315 721.826a.747.747 0 00-.88-.598.756.756 0 00-.593.59.745.745 0 000 .293 611.27 611.27 0 001.36 6.753.76.76 0 00.322.475.743.743 0 00.564.108.756.756 0 00.475-.322.746.746 0 00.108-.563 630.903 630.903 0 01-1.356-6.736zM85.198 719.97a.764.764 0 00.482-.312.749.749 0 00.121-.561l-.108-.596a.753.753 0 00-.578-.6.745.745 0 00-.899.865l.11.601a.749.749 0 00.872.603z" fill="#fff" fill-opacity=".1"/></svg>